<svg width="750" height="804" viewBox="0 0 750 804" fill="none" xmlns="http://www.w3.org/2000/svg">
<path fill-rule="evenodd" clip-rule="evenodd" d="M232.686 263.754V0H237.986V263.754H489.753V0H495.053V263.754H750V269.061H495.053V546.083H750V551.39H495.053V804H489.753V551.39H237.986V804H232.686V551.39H0V546.083H232.686V269.061H0V263.754H232.686ZM237.986 269.061V546.083H489.753V269.061H237.986Z" fill="white" fill-opacity="0.4"/>
<path d="M198.049 146.484V181.654H165.695V208.032H124.098V181.654H9.9371V146.484L124.098 46.0641H165.695V146.484H198.049ZM54.7696 146.484H124.098V87.7129L54.7696 146.484Z" fill="white" fill-opacity="0.4"/>
<path d="M198.049 424.567V459.737H165.695V486.115H124.098V459.737H9.9371V424.567L124.098 324.147H165.695V424.567H198.049ZM54.7696 424.567H124.098V365.796L54.7696 424.567Z" fill="#C4FE01"/>
<path d="M102.375 766.512C38.1307 766.512 7.62615 736.895 7.62615 682.983C7.62615 629.302 38.1307 599.917 102.375 599.917C166.389 599.917 197.124 629.534 197.124 682.983C197.124 736.664 166.389 766.512 102.375 766.512ZM102.375 731.573C138.888 731.573 155.527 713.294 155.527 682.983C155.527 652.903 138.888 634.855 102.375 634.855C65.8622 634.855 49.2233 652.672 49.2233 682.983C49.2233 713.525 65.8622 731.573 102.375 731.573Z" fill="white" fill-opacity="0.4"/>
<path d="M462.006 146.484V181.654H429.653V208.032H388.056V181.654H273.895V146.484L388.056 46.0641H429.653V146.484H462.006ZM318.727 146.484H388.056V87.7129L318.727 146.484Z" fill="#C4FE01"/>
<path d="M366.333 488.429C302.088 488.429 271.584 458.812 271.584 404.9C271.584 351.219 302.088 321.833 366.333 321.833C430.346 321.833 461.082 351.45 461.082 404.9C461.082 458.58 430.346 488.429 366.333 488.429ZM366.333 453.49C402.846 453.49 419.485 435.211 419.485 404.9C419.485 374.82 402.846 356.772 366.333 356.772C329.82 356.772 313.181 374.589 313.181 404.9C313.181 435.442 329.82 453.49 366.333 453.49Z" fill="#C4FE01"/>
<path d="M629.848 766.512C565.604 766.512 535.099 736.895 535.099 682.983C535.099 629.302 565.604 599.917 629.848 599.917C693.862 599.917 724.597 629.534 724.597 682.983C724.597 736.664 693.862 766.512 629.848 766.512ZM629.848 731.573C666.361 731.573 683 713.294 683 682.983C683 652.903 666.361 634.855 629.848 634.855C593.335 634.855 576.696 652.672 576.696 682.983C576.696 713.525 593.335 731.573 629.848 731.573Z" fill="white" fill-opacity="0.4"/>
<path d="M631.35 210.345C567.106 210.345 536.601 180.729 536.601 126.817C536.601 73.1359 567.106 43.7503 631.35 43.7503C695.364 43.7503 726.1 73.3672 726.1 126.817C726.1 180.497 695.364 210.345 631.35 210.345ZM631.35 175.407C667.864 175.407 684.502 157.128 684.502 126.817C684.502 96.7368 667.864 78.689 631.35 78.689C594.837 78.689 578.199 96.5055 578.199 126.817C578.199 157.359 594.837 175.407 631.35 175.407Z" fill="white" fill-opacity="0.4"/>
<path d="M727.024 424.567V459.737H694.671V486.115H653.073V459.737H538.912V424.567L653.073 324.147H694.671V424.567H727.024ZM583.745 424.567H653.073V365.796L583.745 424.567Z" fill="#C4FE01"/>
<path d="M459.5 702.65V737.82H427.147V764.198H385.549V737.82H271.388V702.65L385.549 602.23H427.147V702.65H459.5ZM316.221 702.65H385.549V643.879L316.221 702.65Z" fill="#C4FE01"/>
</svg>
