<svg width="65" height="57" viewBox="0 0 65 57" fill="none" xmlns="http://www.w3.org/2000/svg">
<path d="M62.5062 9.4778C60.7466 9.07174 59.0547 10.1546 58.5809 11.8465L52.9637 35.1273H24.0658L16.0799 3.18386C15.7415 1.76265 14.4557 0.747498 12.9668 0.747498H3.96577C2.20617 0.747498 0.717285 2.16871 0.717285 3.99598C0.717285 5.82326 2.1385 7.24447 3.96577 7.24447H10.4627L18.4486 39.1879C18.787 40.6091 20.0728 41.6243 21.5617 41.6243H55.5355C57.0244 41.6243 58.3102 40.6091 58.6486 39.1202L64.8749 13.3354C65.3486 11.6435 64.2658 9.88386 62.5062 9.4778Z" fill="black"/>
<path d="M26.0958 56.0394C29.2728 56.0394 31.8483 53.4639 31.8483 50.2868C31.8483 47.1098 29.2728 44.5343 26.0958 44.5343C22.9188 44.5343 20.3433 47.1098 20.3433 50.2868C20.3433 53.4639 22.9188 56.0394 26.0958 56.0394Z" fill="black"/>
<path d="M49.4444 56.0394C52.6215 56.0394 55.1969 53.4639 55.1969 50.2868C55.1969 47.1098 52.6215 44.5343 49.4444 44.5343C46.2674 44.5343 43.6919 47.1098 43.6919 50.2868C43.6919 53.4639 46.2674 56.0394 49.4444 56.0394Z" fill="black"/>
<path d="M38.5487 29.9162C45.4517 29.9162 51.0012 24.3667 51.0012 17.4636C51.0012 10.5606 45.4517 5.01111 38.5487 5.01111C31.6457 5.01111 26.0962 10.6283 26.0962 17.4636C26.0962 24.3667 31.6457 29.9162 38.5487 29.9162ZM32.8639 15.9747C33.676 15.298 34.8265 15.4333 35.4356 16.1778L37.2629 18.3434L41.5265 13.2677C42.2033 12.5232 43.3538 12.3879 44.0982 13.0646C44.9103 13.7414 44.978 14.8919 44.3012 15.6364L38.6164 22.404C38.278 22.8101 37.7366 23.0808 37.1952 23.0808C36.6538 23.0808 36.1124 22.8101 35.774 22.404L32.5255 18.5465C31.9841 17.7343 32.1194 16.5838 32.8639 15.9747Z" fill="black"/>
</svg>
