<svg width="99" height="80" viewBox="0 0 99 80" fill="none" xmlns="http://www.w3.org/2000/svg">
<path d="M62.5 72.1H36.5C35.5 72.1 34.7 72.9 34.7 73.9V78.1C34.7 79.1 35.5 79.9 36.5 79.9H62.5C63.5 79.9 64.3 79.1 64.3 78.1V73.9C64.3 72.9 63.5 72.1 62.5 72.1Z" fill="black"/>
<path d="M53.6 22.2C53.1 21.3 52.3 20.6 51.4 20.2V41.7C53.6 42.5 55.1 44.6 55.1 47C55.1 50.1 52.6 52.5999 49.5 52.5999C46.4 52.5999 43.9 50.1 43.9 47C43.9 44.6 45.5 42.5 47.6 41.7V20.2999C46.7 20.6999 46 21.4 45.4 22.2L32 45.5999C31.1 47.0999 30.8 48.8999 31.2 50.5999L34.4 66.5C34.6 67.2999 35.3 68 36.2 68H62.9C63.8 68 64.5 67.4 64.7 66.5L67.9 50.5999C68.3 48.8999 68 47.0999 67.1 45.5999L53.6 22.2Z" fill="black"/>
<path d="M11.7 43.8H10.1414C12.6812 26.5573 26.3573 12.8812 43.6 10.3414V11.9V12.9H44.6H54.3H55.3V11.9V10.3414C72.5427 12.8812 86.2188 26.5573 88.7586 43.8H87.2H86.2V44.8V54.5V55.5H87.2H96.9H97.9V54.5V44.8V43.8H96.9H94.5875C92.6641 28.947 83.6657 16.3569 71.0664 9.5H86.8352C87.8162 11.5121 89.81 12.8 92.1 12.8C95.3523 12.8 98 10.1523 98 6.9C98 3.64771 95.3523 1 92.1 1C89.7959 1 87.8234 2.37848 86.8473 4.3H55.3V2.1V1.1H54.3H44.6H43.6V2.1V4.3H12.1527C11.1766 2.37848 9.20407 1 6.9 1C3.64772 1 1 3.64771 1 6.9C1 10.1523 3.64772 12.8 6.9 12.8C9.20407 12.8 11.1766 11.4215 12.1527 9.5H27.8336C15.2343 16.3569 6.23593 28.947 4.31253 43.8H2H1V44.8V54.5V55.5H2H11.7H12.7V54.5V44.8V43.8H11.7Z" fill="black" stroke="black" stroke-width="2"/>
</svg>
