<svg width="70" height="84" viewBox="0 0 70 84" fill="none" xmlns="http://www.w3.org/2000/svg">
<path d="M69.4 48.5701C69.4 67.6701 53.8 83.2701 34.7 83.2701C15.6 83.2701 0 67.6701 0 48.5701C0 30.6701 13.6 15.8701 31 14.0701L22.8 6.97007C21.1 5.57007 21 2.97007 22.4 1.37007C23.8 -0.329933 26.4 -0.429933 28 0.970067L43.8 14.6701C45.5 16.0701 45.6 18.6701 44.2 20.2701L30.6 36.1701C29.8 37.0701 28.7 37.5701 27.6 37.5701C26.7 37.5701 25.7 37.2701 25 36.5701C23.3 35.1701 23.2 32.5701 24.6 30.9701L32.3 22.0701C18.6 23.2701 8 34.7701 8 48.5701C8 63.2701 20 75.2701 34.7 75.2701C49.4 75.2701 61.4 63.2701 61.4 48.5701C61.4 41.6701 58.8 35.1701 54.1 30.1701C52.6 28.5701 52.6 26.0701 54.2 24.4701C55.8 22.9701 58.3 22.9701 59.9 24.5701C66 31.1701 69.4 39.6701 69.4 48.5701Z" fill="black"/>
</svg>
