<svg width="56" height="49" viewBox="0 0 56 49" fill="none" xmlns="http://www.w3.org/2000/svg">
<path d="M42.8157 40.0701L44.8472 37.9322C47.3297 35.3197 51.4332 35.259 53.9906 37.7962L54.0929 37.8977C56.6356 40.4205 56.6359 44.5124 54.0929 47.0355L53.9906 47.137C51.4342 49.6733 47.3285 49.6122 44.8472 47.001L42.8157 44.8631L40.7841 47.001C38.3029 49.6122 34.1971 49.6733 31.6408 47.137L31.5385 47.0355C28.9955 44.5124 28.9958 40.4205 31.5385 37.8977L31.6408 37.7962C34.1981 35.259 38.3016 35.3197 40.7841 37.9322L42.8157 40.0701ZM38.3886 40.1731C37.1793 38.9004 35.2134 38.8713 33.9689 40.106L33.8666 40.2075C32.6095 41.4547 32.6094 43.4783 33.8666 44.7257L33.9689 44.8272C35.2123 46.0608 37.1805 46.0316 38.3886 44.7602L40.568 42.4666L38.3886 40.1731ZM47.2428 44.7602C48.4509 46.0316 50.4191 46.0608 51.6625 44.8272L51.7648 44.7257C53.022 43.4783 53.0218 41.4547 51.7648 40.2075L51.6625 40.106C50.418 38.8713 48.4521 38.9004 47.2428 40.1731L45.0633 42.4666L47.2428 44.7602ZM13.1695 9.79973V4.89645C13.1695 2.19228 15.3751 0 18.0999 0H31.2857C34.0076 0 36.2161 2.19724 36.2161 4.89645V9.79973H44.4505C47.1775 9.79973 49.3856 11.9875 49.3856 14.6954V31.0325C49.3856 31.9345 48.6486 32.6658 47.7394 32.6658C46.8302 32.6658 46.0932 31.9345 46.0932 31.0325V14.6954C46.0932 13.7926 45.3602 13.0663 44.4505 13.0663H39.5085V31.0325C39.5085 31.9345 38.7715 32.6658 37.8623 32.6658C36.9531 32.6658 36.2161 31.9345 36.2161 31.0325V13.0663H13.1695V40.8322H24.6928C25.602 40.8322 26.339 41.5635 26.339 42.4655C26.339 43.3676 25.602 44.0988 24.6928 44.0988H4.93512C2.20813 44.0988 0 41.911 0 39.2032V14.6954C0 11.9931 2.21415 9.79973 4.93512 9.79973H13.1695ZM9.87712 13.0663H4.93512C4.03134 13.0663 3.29237 13.7984 3.29237 14.6954V39.2032C3.29237 40.1059 4.02543 40.8322 4.93512 40.8322H9.87712V13.0663ZM16.4619 9.79973H32.9237V4.89645C32.9237 3.99932 32.1872 3.26658 31.2857 3.26658H18.0999C17.1947 3.26658 16.4619 3.99504 16.4619 4.89645V9.79973Z" fill="#C4FE01"/>
</svg>
