<svg width="48" height="56" viewBox="0 0 48 56" fill="none" xmlns="http://www.w3.org/2000/svg">
<path d="M45.8384 23.1562C44.9161 22.2339 43.7171 21.6805 42.4259 21.6805H36.2465V13.1031C36.2465 9.69055 34.9553 6.46249 32.5573 4.15674C30.1593 1.75875 27.0235 0.467529 23.6109 0.467529C20.1984 0.467529 16.9704 1.75875 14.6646 4.15674C12.2666 6.55472 10.9754 9.69055 10.9754 13.1031V21.7727H4.79597C3.50475 21.7727 2.30576 22.3261 1.38345 23.1562C0.461151 24.0785 0 25.2775 0 26.5687V50.8252C0 52.1165 0.553381 53.3154 1.38345 54.2378C2.30576 55.1601 3.50475 55.6212 4.79597 55.6212H42.4259C43.7171 55.6212 44.9161 55.0678 45.8384 54.2378C46.7607 53.3154 47.2219 52.1165 47.2219 50.8252V26.4764C47.2219 25.3697 46.7607 24.1707 45.8384 23.1562ZM23.6109 3.4189C26.1934 3.4189 28.6836 4.43343 30.5282 6.27803C32.3728 8.12264 33.3873 10.6129 33.3873 13.1953V21.8649H13.8345V13.1953C13.8345 10.6129 14.8491 8.12264 16.6937 6.27803C18.5383 4.43343 21.0285 3.4189 23.6109 3.4189ZM2.95137 26.5687C2.95137 26.1075 3.13583 25.6464 3.50475 25.2775C3.87367 24.9085 4.33482 24.7241 4.79597 24.7241H42.4259C42.8871 24.7241 43.3482 24.9085 43.8094 25.2775C44.086 25.4619 44.2705 25.7386 44.3627 26.292V50.8252C44.3627 51.2864 44.1783 51.7475 43.8094 52.1165C43.4404 52.4854 43.0715 52.6698 42.5181 52.6698H4.79597C4.33482 52.6698 3.87367 52.4854 3.50475 52.1165C3.13583 51.7475 2.95137 51.2864 2.95137 50.8252V26.5687Z" fill="#C4FE01"/>
<path d="M18.7224 46.3983C18.4457 46.675 18.3535 46.9517 18.3535 47.4128C18.3535 47.7817 18.538 48.2429 18.7224 48.4273C18.9991 48.704 19.2758 48.7963 19.737 48.7963L22.2272 48.704V51.102C22.2272 51.5632 22.4116 51.9321 22.5961 52.1166C22.8728 52.3932 23.1495 52.4855 23.6106 52.4855C23.9796 52.4855 24.4407 52.301 24.6252 52.1166C24.9019 51.8399 24.9941 51.5632 24.9941 51.102V48.6118L27.8532 48.5196C28.2221 48.5196 28.6833 48.3351 28.8678 48.1507C29.1445 47.874 29.2367 47.5973 29.2367 47.1361L28.96 39.1121C29.0522 38.9276 28.96 38.7432 28.96 38.6509V38.5587C28.8678 38.3743 28.7755 38.1898 28.6833 38.0976C28.5911 38.0053 28.4066 37.9131 28.1299 37.8209C27.8532 37.7286 27.6688 37.7286 27.4843 37.7286H20.8437V32.5638H27.4843C27.9455 32.5638 28.3144 32.3793 28.4988 32.1948C28.7755 31.9181 28.8678 31.6415 28.8678 31.1803C28.8678 30.8114 28.6833 30.3502 28.4988 30.1658C28.2221 29.8891 27.9455 29.7968 27.4843 29.7968H25.0863L24.9941 27.0299C24.9941 26.661 24.8096 26.1999 24.6252 26.0154C24.3485 25.7387 24.0718 25.6465 23.6106 25.6465C23.2417 25.6465 22.7806 25.8309 22.5961 26.0154C22.3194 26.2921 22.2272 26.5688 22.2272 27.0299L22.3194 29.6124H19.737C19.368 29.6124 18.9069 29.7968 18.7224 29.9813C18.4457 30.258 18.3535 30.5347 18.3535 30.9958V39.1121C18.3535 39.481 18.538 39.9422 18.7224 40.1266C18.9991 40.4033 19.2758 40.4956 19.737 40.4956H26.4698L26.6542 45.7527L19.8292 45.9371C19.2758 45.9371 18.9069 46.2138 18.7224 46.3983Z" fill="#C4FE01"/>
<path d="M12.9121 49.995C13.0966 50.0872 13.3733 50.1795 13.5577 50.1795C13.8344 50.1795 14.1111 50.0872 14.2033 49.995C14.3878 49.9028 14.6645 49.7183 14.7567 49.5338C14.9412 49.2572 14.9412 48.8882 14.8489 48.4271C14.7567 48.0582 14.5722 47.6892 14.2033 47.5048C12.6354 46.6747 11.4364 45.3835 10.5141 43.7233C9.68405 42.1554 9.31513 40.4031 9.49959 38.5585C9.86851 37.3595 10.3297 35.8838 11.252 34.5926C12.082 33.4858 13.0966 32.4713 14.2956 31.6412C14.48 31.549 14.6645 31.4567 14.7567 31.18C14.7567 31.0878 14.8489 31.0878 14.8489 30.9956C14.9412 30.9033 14.9412 30.8111 15.0334 30.7189C15.1256 30.5344 15.1256 30.2577 15.0334 30.0733C15.0334 29.8888 14.9412 29.7044 14.8489 29.6121C14.7567 29.4277 14.6645 29.3354 14.3878 29.2432C14.2956 29.2432 14.2956 29.151 14.2033 29.151C14.1111 29.0587 14.0189 29.0587 13.9266 28.9665C13.7422 28.8743 13.4655 28.8743 13.281 28.9665C13.0966 28.9665 12.8199 29.0587 12.8199 29.151C11.1597 30.1655 7.28606 33.0246 6.64045 38.1895C6.36376 40.5875 6.82491 42.8933 7.93167 44.9223C9.31513 47.1359 10.9753 48.796 12.9121 49.995Z" fill="#C4FE01"/>
<path d="M32.373 31.7335C33.6642 32.4714 34.771 33.4859 35.4166 34.6849C36.2467 35.7917 36.7078 37.0829 36.9845 38.5586C37.169 40.311 36.8001 42.1556 35.97 43.7235C35.1399 45.3836 33.8487 46.6748 32.2808 47.5049C32.0963 47.5971 31.9119 47.6894 31.8196 47.9661C31.8196 48.0583 31.7274 48.0583 31.7274 48.1505C31.6352 48.2428 31.6352 48.335 31.5429 48.4272V48.5195V48.6117C31.5429 48.7039 31.5429 48.8884 31.5429 49.0728C31.5429 49.2573 31.6352 49.4418 31.7274 49.534C31.8196 49.7184 32.0041 49.9029 32.1886 49.9951C32.373 50.0874 32.6497 50.1796 32.8342 50.1796C33.1109 50.1796 33.3876 50.0874 33.572 49.9951C35.6011 48.8884 37.2612 47.136 38.368 45.0147C39.4747 42.9856 39.9359 40.5877 39.6592 38.2819C39.0136 32.4714 34.2176 29.52 33.572 29.1511C33.2953 28.9666 32.9264 28.9666 32.4653 29.0589C32.0041 29.1511 31.7274 29.4278 31.5429 29.7045C31.3585 29.9812 31.3585 30.3501 31.4507 30.8112C31.8196 31.2724 32.0041 31.5491 32.373 31.7335Z" fill="#C4FE01"/>
</svg>
