<svg width="60" height="56" viewBox="0 0 60 56" fill="none" xmlns="http://www.w3.org/2000/svg">
<path d="M28.3378 34.1742C28.3378 34.7371 28.1142 35.2769 27.7163 35.6749C27.3183 36.0729 26.7785 36.2965 26.2156 36.2965H2.12221C1.55936 36.2965 1.01957 36.0729 0.62158 35.6749C0.223589 35.2769 0 34.7371 0 34.1742C0 33.6114 0.223589 33.0716 0.62158 32.6736C1.01957 32.2756 1.55936 32.052 2.12221 32.052H26.2156C26.7785 32.052 27.3183 32.2756 27.7163 32.6736C28.1142 33.0716 28.3378 33.6114 28.3378 34.1742ZM26.2156 40.5409H8.48883C7.92599 40.5409 7.38619 40.7645 6.9882 41.1625C6.59021 41.5604 6.36662 42.1002 6.36662 42.6631C6.36662 43.2259 6.59021 43.7657 6.9882 44.1637C7.38619 44.5617 7.92599 44.7853 8.48883 44.7853H26.2156C26.7785 44.7853 27.3183 44.5617 27.7163 44.1637C28.1142 43.7657 28.3378 43.2259 28.3378 42.6631C28.3378 42.1002 28.1142 41.5604 27.7163 41.1625C27.3183 40.7645 26.7785 40.5409 26.2156 40.5409ZM26.2156 49.0297H14.8555C14.2926 49.0297 13.7528 49.2533 13.3548 49.6513C12.9568 50.0493 12.7332 50.5891 12.7332 51.1519C12.7332 51.7148 12.9568 52.2545 13.3548 52.6525C13.7528 53.0505 14.2926 53.2741 14.8555 53.2741H26.2156C26.7785 53.2741 27.3183 53.0505 27.7163 52.6525C28.1142 52.2545 28.3378 51.7148 28.3378 51.1519C28.3378 50.5891 28.1142 50.0493 27.7163 49.6513C27.3183 49.2533 26.7785 49.0297 26.2156 49.0297ZM37.4633 33.6097L45.9989 25.0848C46.3854 24.6846 46.5993 24.1485 46.5945 23.5921C46.5897 23.0356 46.3665 22.5034 45.973 22.1099C45.5795 21.7164 45.0472 21.4932 44.4908 21.4884C43.9344 21.4835 43.3983 21.6975 42.998 22.084L34.4668 30.6026C34.2641 30.7983 34.1024 31.0325 33.9912 31.2914C33.88 31.5503 33.8214 31.8288 33.819 32.1106C33.8165 32.3924 33.8702 32.6718 33.9769 32.9327C34.0836 33.1935 34.2412 33.4304 34.4405 33.6297C34.6397 33.8289 34.8767 33.9865 35.1375 34.0932C35.3983 34.1999 35.6778 34.2536 35.9595 34.2512C36.2413 34.2487 36.5198 34.1902 36.7787 34.079C37.0376 33.9677 37.2718 33.8061 37.4676 33.6034L37.4633 33.6097ZM38.0851 8.85631V4.89627H40.0927C40.6556 4.89627 41.1954 4.67268 41.5934 4.27469C41.9914 3.8767 42.215 3.33691 42.215 2.77406C42.215 2.21122 41.9914 1.67143 41.5934 1.27344C41.1954 0.875445 40.6556 0.651855 40.0927 0.651855H31.8374C31.2745 0.651855 30.7347 0.875445 30.3367 1.27344C29.9387 1.67143 29.7152 2.21122 29.7152 2.77406C29.7152 3.33691 29.9387 3.8767 30.3367 4.27469C30.7347 4.67268 31.2745 4.89627 31.8374 4.89627H33.845V8.85207C28.9274 9.28666 24.2756 11.2741 20.5621 14.5268L17.7735 11.7383C17.3756 11.3398 16.8356 11.1157 16.2725 11.1153C15.7093 11.1149 15.1691 11.3382 14.7706 11.7361C14.3721 12.1341 14.148 12.674 14.1476 13.2372C14.1472 13.8003 14.3705 14.3406 14.7684 14.7391L17.6462 17.6147C15.8927 19.8316 14.556 22.3483 13.701 25.0424C13.5506 25.5737 13.6132 26.1427 13.8755 26.6287C14.1378 27.1146 14.5793 27.4791 15.106 27.6448C15.6328 27.8106 16.2034 27.7644 16.6967 27.5163C17.19 27.2681 17.5671 26.8374 17.748 26.3157C18.9642 22.4435 21.3866 19.0616 24.6613 16.6639C27.936 14.2662 31.8915 12.9783 35.9502 12.9882H35.9672H35.9842C41.0526 12.9899 45.9127 15.005 49.4954 18.5901C53.0782 22.1752 55.09 27.0367 55.0883 32.1051C55.0866 37.1735 53.0715 42.0337 49.4864 45.6164C45.9013 49.1991 41.0398 51.2109 35.9714 51.2092C35.6022 51.2092 35.2308 51.1901 34.8021 51.1689C34.2444 51.1493 33.7015 51.35 33.2908 51.7278C32.8801 52.1055 32.6347 52.6298 32.6077 53.1871C32.587 53.7526 32.7902 54.3034 33.1733 54.7198C33.5564 55.1363 34.0883 55.3847 34.6535 55.4112C35.0928 55.4324 35.5342 55.4536 35.9714 55.4536C42.0026 55.4893 47.8135 53.1892 52.1865 49.0355C56.5595 44.8818 59.1552 39.1967 59.4295 33.1717C59.7039 27.1466 57.6357 21.2492 53.6583 16.7152C49.6809 12.1812 44.1031 9.36259 38.0936 8.84994L38.0851 8.85631Z" fill="#C4FE01"/>
</svg>
