<svg width="56" height="52" viewBox="0 0 56 52" fill="none" xmlns="http://www.w3.org/2000/svg">
<path d="M41.8406 21.1431C39.0238 21.1431 36.7352 23.4317 36.7352 26.2484C36.7352 27.3047 37.0286 28.2436 37.5567 29.0652L34.3879 32.9382C33.8011 32.7035 33.1556 32.5861 32.51 32.5861C31.8645 32.5861 31.219 32.7035 30.6322 32.9382L27.4634 29.0652C27.9915 28.2436 28.2849 27.3047 28.2849 26.2484C28.2849 23.4317 25.9963 21.1431 23.1795 21.1431C20.3628 21.1431 18.0742 23.4317 18.0742 26.2484C18.0742 27.3047 18.3676 28.2436 18.8957 29.0652L15.7269 32.9382C15.14 32.7035 14.4945 32.5861 13.849 32.5861C11.0323 32.5861 8.74365 34.8748 8.74365 37.6915C8.74365 40.5083 11.0323 42.7969 13.849 42.7969C16.6658 42.7969 18.9544 40.5083 18.9544 37.6915C18.9544 36.6352 18.661 35.6963 18.1328 34.9334L21.3017 31.0604C21.8885 31.2951 22.534 31.4125 23.1795 31.4125C23.825 31.4125 24.4705 31.2951 25.0574 31.0604L28.2262 34.9334C27.6981 35.755 27.4047 36.6939 27.4047 37.6915C27.4047 40.5083 29.6933 42.7969 32.51 42.7969C35.3268 42.7969 37.6154 40.5083 37.6154 37.6915C37.6154 36.6352 37.322 35.6963 36.7939 34.8748L39.9627 31.0017C40.5495 31.2365 41.195 31.3538 41.8406 31.3538C44.6573 31.3538 46.9459 29.0652 46.9459 26.2484C46.9459 23.4317 44.6573 21.1431 41.8406 21.1431ZM13.9077 39.628C12.7927 39.628 11.9125 38.7478 11.9125 37.6328C11.9125 36.5179 12.7927 35.6376 13.9077 35.6376C15.0227 35.6376 15.9029 36.5179 15.9029 37.6328C15.9029 38.7478 15.0227 39.628 13.9077 39.628ZM21.1843 26.2484C21.1843 25.1335 22.0646 24.2532 23.1795 24.2532C24.2945 24.2532 25.1747 25.1335 25.1747 26.2484C25.1747 27.3634 24.2945 28.2436 23.1795 28.2436C22.0646 28.2436 21.1843 27.3634 21.1843 26.2484ZM32.51 39.628C31.3951 39.628 30.5148 38.7478 30.5148 37.6328C30.5148 36.5179 31.3951 35.6376 32.51 35.6376C33.625 35.6376 34.5052 36.5179 34.5052 37.6328C34.5639 38.7478 33.625 39.628 32.51 39.628ZM41.8406 28.2436C40.7256 28.2436 39.8454 27.3634 39.8454 26.2484C39.8454 25.1335 40.7256 24.2532 41.8406 24.2532C42.9555 24.2532 43.8358 25.1335 43.8358 26.2484C43.8358 27.3634 42.9555 28.2436 41.8406 28.2436Z" fill="#B9EF02"/>
<path d="M51.1124 0.134766H4.63591C2.05389 0.134766 0 2.18865 0 4.77068V46.846C0 49.428 2.05389 51.4819 4.63591 51.4819H51.1124C53.6944 51.4819 55.7483 49.428 55.7483 46.846V4.77068C55.7483 2.18865 53.6944 0.134766 51.1124 0.134766ZM4.63591 3.18625H51.1124C51.9927 3.18625 52.6382 3.89044 52.6382 4.712V12.4581H3.11017V4.77068C3.11017 3.89044 3.75568 3.18625 4.63591 3.18625ZM51.1124 48.3717H4.63591C3.75568 48.3717 3.11017 47.6676 3.11017 46.846V15.5683H52.6968V46.846C52.6382 47.6676 51.9927 48.3717 51.1124 48.3717Z" fill="#B9EF02"/>
<path d="M7.9217 9.64124C8.92639 9.64124 9.74085 8.82678 9.74085 7.82209C9.74085 6.81739 8.92639 6.00293 7.9217 6.00293C6.917 6.00293 6.10254 6.81739 6.10254 7.82209C6.10254 8.82678 6.917 9.64124 7.9217 9.64124Z" fill="#B9EF02"/>
<path d="M13.5555 9.64124C14.5602 9.64124 15.3746 8.82678 15.3746 7.82209C15.3746 6.81739 14.5602 6.00293 13.5555 6.00293C12.5508 6.00293 11.7363 6.81739 11.7363 7.82209C11.7363 8.82678 12.5508 9.64124 13.5555 9.64124Z" fill="#B9EF02"/>
<path d="M19.1888 9.64124C20.1935 9.64124 21.0079 8.82678 21.0079 7.82209C21.0079 6.81739 20.1935 6.00293 19.1888 6.00293C18.1841 6.00293 17.3696 6.81739 17.3696 7.82209C17.3696 8.82678 18.1841 9.64124 19.1888 9.64124Z" fill="#B9EF02"/>
</svg>
