<svg width="47" height="76" viewBox="0 0 47 76" fill="none" xmlns="http://www.w3.org/2000/svg">
<path d="M45.4906 20.6007L43.335 17.9248C42.889 17.4044 42.5174 16.2152 42.5174 15.4718L42.6661 12.0526C42.7404 10.1943 41.4024 8.41039 39.6928 7.89007L36.4222 6.9981C35.7533 6.84943 34.7126 6.10612 34.341 5.51147L32.4827 2.68689C31.7394 1.57192 30.4014 0.828613 28.9891 0.828613C28.5431 0.828613 28.0228 0.902944 27.5768 1.05161L24.4549 2.4639C24.1576 2.61256 23.6373 2.61256 23.1913 2.61256C22.671 2.61256 22.225 2.53823 21.9277 2.38957L18.7314 1.20027C18.2855 1.05161 17.8395 0.977275 17.3935 0.977275C15.9812 0.977275 14.6432 1.64626 13.8999 2.83555L12.0416 5.66014C11.67 6.25478 10.6293 6.9981 9.96037 7.14676L6.6898 8.03873C4.90585 8.48472 3.56789 10.343 3.71655 12.2013L3.86522 15.6205C3.86522 16.2895 3.49356 17.5531 3.04757 18.0734L0.891973 20.6007C-0.297324 22.013 -0.297324 24.3172 0.891973 25.7295L3.04757 28.4055C3.49356 28.9258 3.86522 30.1151 3.86522 30.8584L3.71655 34.2776C3.64222 36.1359 4.98018 37.9198 6.6898 38.4402L9.96037 39.3321C10.2577 39.4065 10.6293 39.6295 11.001 39.8524L6.31814 70.3282C6.09515 71.5918 6.54114 72.4095 6.91279 72.8554C7.35878 73.3758 8.02776 73.6731 8.77107 73.6731C9.29139 73.6731 9.88604 73.5244 10.4807 73.1528L18.1368 68.7672C18.3598 68.6186 18.7314 68.5443 19.0288 68.5443C19.5491 68.5443 20.0694 68.6929 20.3667 68.9159L27.0565 74.4907C27.7255 75.0111 28.3945 75.3084 29.1378 75.3084C30.3271 75.3084 31.6651 74.4164 31.6651 72.3351L31.7394 65.2737C31.9624 65.2737 32.111 65.348 32.2597 65.4223L36.7196 67.6523C38.0575 68.3213 39.4698 68.0983 40.2131 67.132C40.5848 66.686 40.9564 65.794 40.6591 64.5304L35.1586 39.8524C35.5303 39.5551 35.9763 39.3321 36.2736 39.2578L39.5441 38.3658C41.3281 37.9198 42.6661 36.0616 42.5174 34.2033V30.8584C42.5174 30.1894 42.889 28.9258 43.335 28.4055L45.4906 25.7295C46.6056 24.3172 46.6056 22.0873 45.4906 20.6007ZM22.448 66.463C21.556 65.7197 20.3667 65.348 19.1031 65.348C18.2111 65.348 17.3191 65.571 16.5758 65.9427L9.66304 69.8822L13.7513 43.2717L13.9742 43.569C14.7176 44.684 16.0555 45.4273 17.4678 45.4273C17.9138 45.4273 18.4341 45.3529 18.8801 45.2043L22.0763 44.015C22.3737 43.8663 22.894 43.792 23.34 43.792C23.786 43.792 24.3063 43.8663 24.6036 44.015L27.7998 45.2043C28.1715 45.3529 28.6175 45.4273 28.9891 45.4273L28.6175 71.4432L22.448 66.463ZM33.7463 62.5234C33.1517 62.2261 32.557 62.0774 31.888 62.0774L32.111 44.0893C32.2597 43.9407 32.4084 43.792 32.4827 43.569L32.7057 43.1973L37.3885 64.3074L33.7463 62.5234ZM42.9634 23.7226L40.8078 26.3985C39.8415 27.5878 39.2468 29.5204 39.3212 31.007L39.4698 34.4263C39.4698 34.7236 39.1725 35.1696 38.8752 35.3182L35.6046 36.2102C34.1923 36.5819 32.4827 37.8455 31.6651 39.0348L29.8068 41.8594C29.6581 42.0824 29.3608 42.231 28.9891 42.231C28.9148 42.231 28.8405 42.231 28.7661 42.1567L25.5699 40.9674C24.9009 40.7444 24.0089 40.5958 23.117 40.5958C22.225 40.5958 21.333 40.7444 20.664 40.9674L17.4678 42.1567C17.3935 42.1567 17.3191 42.231 17.2448 42.231C16.9475 42.231 16.5758 42.0824 16.4272 41.8594L14.5689 39.0348C13.7513 37.7712 12.0416 36.5819 10.6293 36.2102L7.35878 35.3182C7.06146 35.2439 6.6898 34.7979 6.76413 34.4263L6.91279 31.007C6.98712 29.5204 6.31814 27.5135 5.42617 26.3985L3.27057 23.7226C3.04758 23.4996 3.04758 22.905 3.27057 22.682L5.42617 20.006C6.39248 18.8167 6.98712 16.8841 6.91279 15.3975L6.76413 11.9783C6.76413 11.681 7.06146 11.235 7.35878 11.0863L10.6293 10.1943C12.0416 9.82268 13.7513 8.55905 14.5689 7.36975L16.4272 4.54517C16.5758 4.32218 16.8732 4.17351 17.2448 4.17351C17.3191 4.17351 17.3935 4.17351 17.4678 4.24784L20.664 5.43714C21.333 5.66013 22.225 5.8088 23.117 5.8088C24.0089 5.8088 24.9009 5.66013 25.5699 5.43714L28.7661 4.24784C28.8405 4.24784 28.9148 4.17351 28.9891 4.17351C29.2865 4.17351 29.6581 4.32218 29.8068 4.54517L31.6651 7.36975C32.4827 8.63338 34.1923 9.82268 35.6046 10.1943L38.8752 11.0863C39.1725 11.1606 39.5442 11.6066 39.4698 11.9783L39.3212 15.3975C39.2468 16.8841 39.9158 18.8911 40.8078 20.006L42.9634 22.682C43.1864 22.905 43.1864 23.4996 42.9634 23.7226Z" fill="#C4FE01"/>
<path d="M23.1913 9.67383C15.7582 9.67383 9.66309 15.769 9.66309 23.2021C9.66309 30.6352 15.7582 36.7303 23.1913 36.7303C30.6245 36.7303 36.7196 30.6352 36.7196 23.2021C36.7196 15.769 30.6245 9.67383 23.1913 9.67383ZM23.1913 33.4598C17.5422 33.4598 12.9337 28.8513 12.9337 23.2021C12.9337 17.5529 17.5422 12.9444 23.1913 12.9444C28.8405 12.9444 33.449 17.5529 33.449 23.2021C33.449 28.8513 28.8405 33.4598 23.1913 33.4598Z" fill="#C4FE01"/>
</svg>
