<svg width="64" height="64" viewBox="0 0 64 64" fill="none" xmlns="http://www.w3.org/2000/svg">
<mask id="path-1-outside-1_128_251" maskUnits="userSpaceOnUse" x="0" y="0" width="64" height="64" fill="black">
<rect fill="white" width="64" height="64"/>
<path d="M31.8845 63C31.2663 63 30.7672 62.5011 30.7672 61.883C30.7672 61.265 31.2663 60.766 31.8845 60.766H32.0037C33.9182 60.766 35.84 60.5724 37.7023 60.2001C38.3057 60.0735 38.8942 60.4682 39.0208 61.0713C39.14 61.6745 38.7527 62.2628 38.1493 62.3894C36.138 62.7915 34.0746 63 32.0112 63H31.8845ZM24.5173 62.0468C24.4279 62.0468 24.3311 62.032 24.2343 62.0096C22.2453 61.4958 20.2936 60.7735 18.4463 59.8725C17.895 59.6044 17.6641 58.9342 17.9323 58.3757C18.2004 57.8172 18.8783 57.5938 19.4295 57.8619C21.1503 58.7033 22.953 59.3661 24.8004 59.8427C25.3963 59.999 25.7539 60.6097 25.6049 61.2054C25.4783 61.7118 25.0239 62.0394 24.5248 62.0394L24.5173 62.0468ZM44.9727 60.0363C44.5556 60.0363 44.1607 59.8054 43.9671 59.4033C43.6989 58.8448 43.9298 58.1821 44.4885 57.914C46.2018 57.0874 47.8481 56.0822 49.3752 54.9205C49.8668 54.5482 50.567 54.645 50.9395 55.1364C51.3119 55.6279 51.2151 56.3279 50.7235 56.7002C49.0772 57.9438 47.3117 59.031 45.4643 59.9246C45.3079 59.999 45.144 60.0363 44.9802 60.0363H44.9727ZM12.7179 55.9258C12.4646 55.9258 12.2039 55.8364 11.9953 55.6651C10.4235 54.3322 8.97838 52.8429 7.70457 51.2345C7.31722 50.7504 7.39916 50.0504 7.88336 49.6632C8.36755 49.276 9.06777 49.3579 9.45513 49.8419C10.6395 51.3387 11.9804 52.7238 13.4404 53.9524C13.9097 54.3546 13.9693 55.0545 13.5745 55.5237C13.351 55.7843 13.0382 55.9183 12.7179 55.9183V55.9258ZM55.3643 51.7483C55.1185 51.7483 54.8726 51.6664 54.6641 51.5025C54.1799 51.1153 54.1054 50.4153 54.4927 49.9313C55.6846 48.4345 56.7349 46.8186 57.6065 45.1283C57.8895 44.5847 58.56 44.3613 59.1112 44.6443C59.6624 44.9272 59.8785 45.5974 59.5954 46.1485C58.6568 47.9729 57.5245 49.7154 56.2358 51.3238C56.0124 51.5993 55.692 51.7408 55.3643 51.7408V51.7483ZM4.71001 45.3144C4.28541 45.3144 3.87571 45.0687 3.68948 44.6517C2.84773 42.7752 2.1922 40.8018 1.7378 38.7987C1.60372 38.1955 1.98362 37.5998 2.57956 37.4658C3.18294 37.3317 3.77887 37.7115 3.91295 38.3072C4.33011 40.1689 4.94094 41.9933 5.7231 43.7358C5.97637 44.3017 5.7231 44.957 5.16441 45.2102C5.01543 45.2772 4.859 45.307 4.71001 45.307V45.3144ZM61.1448 39.7891C61.0629 39.7891 60.9809 39.7817 60.8916 39.7593C60.2882 39.6178 59.9157 39.0221 60.0498 38.4189C60.4744 36.5647 60.7128 34.6584 60.7649 32.7372C60.7798 32.1192 61.2938 31.6277 61.9121 31.65C62.5304 31.6649 63.0146 32.1787 62.9997 32.7968C62.9475 34.8595 62.6868 36.9222 62.2324 38.9179C62.1132 39.4317 61.6514 39.7891 61.1448 39.7891ZM2.11771 32.283C2.11771 32.283 2.09536 32.283 2.08791 32.283C1.46963 32.2681 0.985436 31.7543 1.00033 31.1362C1.05993 29.0735 1.32065 27.0183 1.7825 25.0151C1.92403 24.412 2.51996 24.0396 3.12334 24.1811C3.72673 24.3226 4.09918 24.9183 3.95765 25.5215C3.5256 27.3757 3.28723 29.282 3.23508 31.1958C3.22018 31.7989 2.72109 32.283 2.11771 32.283ZM61.1597 26.5044C60.6457 26.5044 60.1913 26.1545 60.0721 25.6332C59.6475 23.7716 59.0367 21.9472 58.2546 20.2047C58.0013 19.6462 58.2546 18.9834 58.8132 18.7302C59.3794 18.4771 60.0349 18.7302 60.2882 19.2887C61.1374 21.1653 61.7929 23.1312 62.2547 25.1417C62.3888 25.7449 62.0164 26.3406 61.413 26.4747C61.3311 26.497 61.2491 26.5044 61.1672 26.5044H61.1597ZM5.44003 19.4153C5.2687 19.4153 5.08992 19.3781 4.92604 19.2887C4.3748 19.0058 4.16623 18.3281 4.44929 17.7845C5.39534 15.9601 6.52761 14.2251 7.81631 12.6166C8.20367 12.14 8.90389 12.0581 9.38808 12.4454C9.87228 12.8326 9.94677 13.5325 9.55942 14.0166C8.3601 15.5059 7.30977 17.1218 6.43077 18.8122C6.22964 19.1994 5.84229 19.4153 5.44003 19.4153ZM55.3941 14.5229C55.0663 14.5229 54.7386 14.3815 54.5225 14.0985C53.3307 12.6092 51.9898 11.2241 50.5298 9.99544C50.0605 9.60077 50.0009 8.89335 50.3957 8.42421C50.7905 7.95508 51.4982 7.89551 51.9675 8.29018C53.5392 9.61566 54.9844 11.105 56.2731 12.7134C56.6604 13.1975 56.5785 13.8974 56.0943 14.2847C55.8857 14.4485 55.6399 14.5304 55.4015 14.5304L55.3941 14.5229ZM14.014 9.25823C13.6788 9.25823 13.3436 9.10185 13.1201 8.81144C12.7477 8.31996 12.8445 7.61999 13.3361 7.24766C14.9824 6.00408 16.7553 4.92433 18.6027 4.03819C19.1614 3.77012 19.8244 4.00841 20.0925 4.55945C20.3607 5.11794 20.1223 5.78069 19.5711 6.04876C17.8503 6.87533 16.2041 7.88062 14.6844 9.02738C14.4833 9.17632 14.2449 9.25078 14.014 9.25078V9.25823ZM45.0099 6.21259C44.8461 6.21259 44.6822 6.17535 44.5258 6.10089C42.805 5.26688 40.9949 4.60413 39.1549 4.12755C38.559 3.97117 38.194 3.368 38.3504 2.76483C38.5068 2.16911 39.1102 1.81167 39.7136 1.96061C41.7025 2.47442 43.6542 3.18929 45.509 4.08287C46.0677 4.35095 46.2987 5.02114 46.023 5.57218C45.8294 5.96685 45.4346 6.20514 45.0174 6.20514L45.0099 6.21259ZM26.1338 3.80735C25.6123 3.80735 25.1431 3.44247 25.0388 2.90632C24.9196 2.30315 25.3144 1.71487 25.9178 1.59572C27.9067 1.20106 29.9478 1 31.9963 1C32.6146 1 33.1434 1.49892 33.1434 2.11698C33.1434 2.73505 32.6741 3.23397 32.0559 3.23397H31.9963C30.0967 3.23397 28.2047 3.42013 26.3573 3.78501C26.2828 3.7999 26.2083 3.80735 26.1412 3.80735H26.1338ZM31.9963 11.105C20.4724 11.105 11.0939 20.4727 11.0939 31.9926C11.0939 43.5124 20.4724 52.8801 31.9963 52.8801C43.5201 52.8801 52.8986 43.5124 52.8986 31.9926C52.8986 20.4727 43.5201 11.105 31.9963 11.105ZM20.3905 46.5878C20.9343 42.5592 23.534 39.0817 27.2512 37.4509C27.6087 37.2945 27.8545 36.9669 27.9067 36.5796C27.9588 36.1924 27.8024 35.8052 27.5044 35.5595C25.739 34.1297 24.7184 32 24.7184 29.7214C24.7184 25.5811 28.0855 22.2078 32.2272 22.2078C36.3689 22.2078 39.7359 25.5811 39.7359 29.7214C39.7359 32.0819 38.6633 34.2489 36.7935 35.6786C36.4807 35.9169 36.3168 36.2967 36.3615 36.6839C36.4062 37.0711 36.6445 37.4137 36.9947 37.5775C40.5554 39.2529 43.0583 42.6858 43.5872 46.5878C40.3989 49.1271 36.3689 50.6462 31.9814 50.6462C27.5938 50.6462 23.5638 49.1196 20.3756 46.5804L20.3905 46.5878ZM45.5314 44.8155C44.6598 41.3156 42.4474 38.2551 39.3933 36.3413C41.0544 34.5616 41.9856 32.2234 41.9856 29.7214C41.9856 24.3449 37.6129 19.9738 32.2421 19.9738C26.8713 19.9738 22.4986 24.3449 22.4986 29.7214C22.4986 32.1117 23.3627 34.3829 24.9121 36.1477C21.6866 38.0466 19.3625 41.1816 18.4612 44.8155C15.2878 41.472 13.3361 36.9594 13.3361 32C13.3361 21.7163 21.709 13.3464 32.0037 13.3464C42.2985 13.3464 50.6713 21.7163 50.6713 32C50.6713 36.9669 48.7196 41.4795 45.5463 44.823L45.5314 44.8155ZM12.8221 17.7324V10.3231C12.8221 9.70502 12.3231 9.2061 11.7048 9.2061H4.30031C3.68203 9.2061 3.18294 9.70502 3.18294 10.3231C3.18294 10.9411 3.68203 11.4401 4.30031 11.4401H10.5874V17.7324C10.5874 18.3505 11.0865 18.8494 11.7048 18.8494C12.3231 18.8494 12.8221 18.3505 12.8221 17.7324ZM61.0331 53.6844C61.0331 53.0663 60.534 52.5674 59.9157 52.5674H53.6286V46.275C53.6286 45.657 53.1295 45.1581 52.5112 45.1581C51.893 45.1581 51.3939 45.657 51.3939 46.275V53.6844C51.3939 54.3024 51.893 54.8013 52.5112 54.8013H59.9157C60.534 54.8013 61.0331 54.3024 61.0331 53.6844Z"/>
</mask>
<path d="M31.8845 63C31.2663 63 30.7672 62.5011 30.7672 61.883C30.7672 61.265 31.2663 60.766 31.8845 60.766H32.0037C33.9182 60.766 35.84 60.5724 37.7023 60.2001C38.3057 60.0735 38.8942 60.4682 39.0208 61.0713C39.14 61.6745 38.7527 62.2628 38.1493 62.3894C36.138 62.7915 34.0746 63 32.0112 63H31.8845ZM24.5173 62.0468C24.4279 62.0468 24.3311 62.032 24.2343 62.0096C22.2453 61.4958 20.2936 60.7735 18.4463 59.8725C17.895 59.6044 17.6641 58.9342 17.9323 58.3757C18.2004 57.8172 18.8783 57.5938 19.4295 57.8619C21.1503 58.7033 22.953 59.3661 24.8004 59.8427C25.3963 59.999 25.7539 60.6097 25.6049 61.2054C25.4783 61.7118 25.0239 62.0394 24.5248 62.0394L24.5173 62.0468ZM44.9727 60.0363C44.5556 60.0363 44.1607 59.8054 43.9671 59.4033C43.6989 58.8448 43.9298 58.1821 44.4885 57.914C46.2018 57.0874 47.8481 56.0822 49.3752 54.9205C49.8668 54.5482 50.567 54.645 50.9395 55.1364C51.3119 55.6279 51.2151 56.3279 50.7235 56.7002C49.0772 57.9438 47.3117 59.031 45.4643 59.9246C45.3079 59.999 45.144 60.0363 44.9802 60.0363H44.9727ZM12.7179 55.9258C12.4646 55.9258 12.2039 55.8364 11.9953 55.6651C10.4235 54.3322 8.97838 52.8429 7.70457 51.2345C7.31722 50.7504 7.39916 50.0504 7.88336 49.6632C8.36755 49.276 9.06777 49.3579 9.45513 49.8419C10.6395 51.3387 11.9804 52.7238 13.4404 53.9524C13.9097 54.3546 13.9693 55.0545 13.5745 55.5237C13.351 55.7843 13.0382 55.9183 12.7179 55.9183V55.9258ZM55.3643 51.7483C55.1185 51.7483 54.8726 51.6664 54.6641 51.5025C54.1799 51.1153 54.1054 50.4153 54.4927 49.9313C55.6846 48.4345 56.7349 46.8186 57.6065 45.1283C57.8895 44.5847 58.56 44.3613 59.1112 44.6443C59.6624 44.9272 59.8785 45.5974 59.5954 46.1485C58.6568 47.9729 57.5245 49.7154 56.2358 51.3238C56.0124 51.5993 55.692 51.7408 55.3643 51.7408V51.7483ZM4.71001 45.3144C4.28541 45.3144 3.87571 45.0687 3.68948 44.6517C2.84773 42.7752 2.1922 40.8018 1.7378 38.7987C1.60372 38.1955 1.98362 37.5998 2.57956 37.4658C3.18294 37.3317 3.77887 37.7115 3.91295 38.3072C4.33011 40.1689 4.94094 41.9933 5.7231 43.7358C5.97637 44.3017 5.7231 44.957 5.16441 45.2102C5.01543 45.2772 4.859 45.307 4.71001 45.307V45.3144ZM61.1448 39.7891C61.0629 39.7891 60.9809 39.7817 60.8916 39.7593C60.2882 39.6178 59.9157 39.0221 60.0498 38.4189C60.4744 36.5647 60.7128 34.6584 60.7649 32.7372C60.7798 32.1192 61.2938 31.6277 61.9121 31.65C62.5304 31.6649 63.0146 32.1787 62.9997 32.7968C62.9475 34.8595 62.6868 36.9222 62.2324 38.9179C62.1132 39.4317 61.6514 39.7891 61.1448 39.7891ZM2.11771 32.283C2.11771 32.283 2.09536 32.283 2.08791 32.283C1.46963 32.2681 0.985436 31.7543 1.00033 31.1362C1.05993 29.0735 1.32065 27.0183 1.7825 25.0151C1.92403 24.412 2.51996 24.0396 3.12334 24.1811C3.72673 24.3226 4.09918 24.9183 3.95765 25.5215C3.5256 27.3757 3.28723 29.282 3.23508 31.1958C3.22018 31.7989 2.72109 32.283 2.11771 32.283ZM61.1597 26.5044C60.6457 26.5044 60.1913 26.1545 60.0721 25.6332C59.6475 23.7716 59.0367 21.9472 58.2546 20.2047C58.0013 19.6462 58.2546 18.9834 58.8132 18.7302C59.3794 18.4771 60.0349 18.7302 60.2882 19.2887C61.1374 21.1653 61.7929 23.1312 62.2547 25.1417C62.3888 25.7449 62.0164 26.3406 61.413 26.4747C61.3311 26.497 61.2491 26.5044 61.1672 26.5044H61.1597ZM5.44003 19.4153C5.2687 19.4153 5.08992 19.3781 4.92604 19.2887C4.3748 19.0058 4.16623 18.3281 4.44929 17.7845C5.39534 15.9601 6.52761 14.2251 7.81631 12.6166C8.20367 12.14 8.90389 12.0581 9.38808 12.4454C9.87228 12.8326 9.94677 13.5325 9.55942 14.0166C8.3601 15.5059 7.30977 17.1218 6.43077 18.8122C6.22964 19.1994 5.84229 19.4153 5.44003 19.4153ZM55.3941 14.5229C55.0663 14.5229 54.7386 14.3815 54.5225 14.0985C53.3307 12.6092 51.9898 11.2241 50.5298 9.99544C50.0605 9.60077 50.0009 8.89335 50.3957 8.42421C50.7905 7.95508 51.4982 7.89551 51.9675 8.29018C53.5392 9.61566 54.9844 11.105 56.2731 12.7134C56.6604 13.1975 56.5785 13.8974 56.0943 14.2847C55.8857 14.4485 55.6399 14.5304 55.4015 14.5304L55.3941 14.5229ZM14.014 9.25823C13.6788 9.25823 13.3436 9.10185 13.1201 8.81144C12.7477 8.31996 12.8445 7.61999 13.3361 7.24766C14.9824 6.00408 16.7553 4.92433 18.6027 4.03819C19.1614 3.77012 19.8244 4.00841 20.0925 4.55945C20.3607 5.11794 20.1223 5.78069 19.5711 6.04876C17.8503 6.87533 16.2041 7.88062 14.6844 9.02738C14.4833 9.17632 14.2449 9.25078 14.014 9.25078V9.25823ZM45.0099 6.21259C44.8461 6.21259 44.6822 6.17535 44.5258 6.10089C42.805 5.26688 40.9949 4.60413 39.1549 4.12755C38.559 3.97117 38.194 3.368 38.3504 2.76483C38.5068 2.16911 39.1102 1.81167 39.7136 1.96061C41.7025 2.47442 43.6542 3.18929 45.509 4.08287C46.0677 4.35095 46.2987 5.02114 46.023 5.57218C45.8294 5.96685 45.4346 6.20514 45.0174 6.20514L45.0099 6.21259ZM26.1338 3.80735C25.6123 3.80735 25.1431 3.44247 25.0388 2.90632C24.9196 2.30315 25.3144 1.71487 25.9178 1.59572C27.9067 1.20106 29.9478 1 31.9963 1C32.6146 1 33.1434 1.49892 33.1434 2.11698C33.1434 2.73505 32.6741 3.23397 32.0559 3.23397H31.9963C30.0967 3.23397 28.2047 3.42013 26.3573 3.78501C26.2828 3.7999 26.2083 3.80735 26.1412 3.80735H26.1338ZM31.9963 11.105C20.4724 11.105 11.0939 20.4727 11.0939 31.9926C11.0939 43.5124 20.4724 52.8801 31.9963 52.8801C43.5201 52.8801 52.8986 43.5124 52.8986 31.9926C52.8986 20.4727 43.5201 11.105 31.9963 11.105ZM20.3905 46.5878C20.9343 42.5592 23.534 39.0817 27.2512 37.4509C27.6087 37.2945 27.8545 36.9669 27.9067 36.5796C27.9588 36.1924 27.8024 35.8052 27.5044 35.5595C25.739 34.1297 24.7184 32 24.7184 29.7214C24.7184 25.5811 28.0855 22.2078 32.2272 22.2078C36.3689 22.2078 39.7359 25.5811 39.7359 29.7214C39.7359 32.0819 38.6633 34.2489 36.7935 35.6786C36.4807 35.9169 36.3168 36.2967 36.3615 36.6839C36.4062 37.0711 36.6445 37.4137 36.9947 37.5775C40.5554 39.2529 43.0583 42.6858 43.5872 46.5878C40.3989 49.1271 36.3689 50.6462 31.9814 50.6462C27.5938 50.6462 23.5638 49.1196 20.3756 46.5804L20.3905 46.5878ZM45.5314 44.8155C44.6598 41.3156 42.4474 38.2551 39.3933 36.3413C41.0544 34.5616 41.9856 32.2234 41.9856 29.7214C41.9856 24.3449 37.6129 19.9738 32.2421 19.9738C26.8713 19.9738 22.4986 24.3449 22.4986 29.7214C22.4986 32.1117 23.3627 34.3829 24.9121 36.1477C21.6866 38.0466 19.3625 41.1816 18.4612 44.8155C15.2878 41.472 13.3361 36.9594 13.3361 32C13.3361 21.7163 21.709 13.3464 32.0037 13.3464C42.2985 13.3464 50.6713 21.7163 50.6713 32C50.6713 36.9669 48.7196 41.4795 45.5463 44.823L45.5314 44.8155ZM12.8221 17.7324V10.3231C12.8221 9.70502 12.3231 9.2061 11.7048 9.2061H4.30031C3.68203 9.2061 3.18294 9.70502 3.18294 10.3231C3.18294 10.9411 3.68203 11.4401 4.30031 11.4401H10.5874V17.7324C10.5874 18.3505 11.0865 18.8494 11.7048 18.8494C12.3231 18.8494 12.8221 18.3505 12.8221 17.7324ZM61.0331 53.6844C61.0331 53.0663 60.534 52.5674 59.9157 52.5674H53.6286V46.275C53.6286 45.657 53.1295 45.1581 52.5112 45.1581C51.893 45.1581 51.3939 45.657 51.3939 46.275V53.6844C51.3939 54.3024 51.893 54.8013 52.5112 54.8013H59.9157C60.534 54.8013 61.0331 54.3024 61.0331 53.6844Z" fill="#C4FE01"/>
<path d="M31.8845 63C31.2663 63 30.7672 62.5011 30.7672 61.883C30.7672 61.265 31.2663 60.766 31.8845 60.766H32.0037C33.9182 60.766 35.84 60.5724 37.7023 60.2001C38.3057 60.0735 38.8942 60.4682 39.0208 61.0713C39.14 61.6745 38.7527 62.2628 38.1493 62.3894C36.138 62.7915 34.0746 63 32.0112 63H31.8845ZM24.5173 62.0468C24.4279 62.0468 24.3311 62.032 24.2343 62.0096C22.2453 61.4958 20.2936 60.7735 18.4463 59.8725C17.895 59.6044 17.6641 58.9342 17.9323 58.3757C18.2004 57.8172 18.8783 57.5938 19.4295 57.8619C21.1503 58.7033 22.953 59.3661 24.8004 59.8427C25.3963 59.999 25.7539 60.6097 25.6049 61.2054C25.4783 61.7118 25.0239 62.0394 24.5248 62.0394L24.5173 62.0468ZM44.9727 60.0363C44.5556 60.0363 44.1607 59.8054 43.9671 59.4033C43.6989 58.8448 43.9298 58.1821 44.4885 57.914C46.2018 57.0874 47.8481 56.0822 49.3752 54.9205C49.8668 54.5482 50.567 54.645 50.9395 55.1364C51.3119 55.6279 51.2151 56.3279 50.7235 56.7002C49.0772 57.9438 47.3117 59.031 45.4643 59.9246C45.3079 59.999 45.144 60.0363 44.9802 60.0363H44.9727ZM12.7179 55.9258C12.4646 55.9258 12.2039 55.8364 11.9953 55.6651C10.4235 54.3322 8.97838 52.8429 7.70457 51.2345C7.31722 50.7504 7.39916 50.0504 7.88336 49.6632C8.36755 49.276 9.06777 49.3579 9.45513 49.8419C10.6395 51.3387 11.9804 52.7238 13.4404 53.9524C13.9097 54.3546 13.9693 55.0545 13.5745 55.5237C13.351 55.7843 13.0382 55.9183 12.7179 55.9183V55.9258ZM55.3643 51.7483C55.1185 51.7483 54.8726 51.6664 54.6641 51.5025C54.1799 51.1153 54.1054 50.4153 54.4927 49.9313C55.6846 48.4345 56.7349 46.8186 57.6065 45.1283C57.8895 44.5847 58.56 44.3613 59.1112 44.6443C59.6624 44.9272 59.8785 45.5974 59.5954 46.1485C58.6568 47.9729 57.5245 49.7154 56.2358 51.3238C56.0124 51.5993 55.692 51.7408 55.3643 51.7408V51.7483ZM4.71001 45.3144C4.28541 45.3144 3.87571 45.0687 3.68948 44.6517C2.84773 42.7752 2.1922 40.8018 1.7378 38.7987C1.60372 38.1955 1.98362 37.5998 2.57956 37.4658C3.18294 37.3317 3.77887 37.7115 3.91295 38.3072C4.33011 40.1689 4.94094 41.9933 5.7231 43.7358C5.97637 44.3017 5.7231 44.957 5.16441 45.2102C5.01543 45.2772 4.859 45.307 4.71001 45.307V45.3144ZM61.1448 39.7891C61.0629 39.7891 60.9809 39.7817 60.8916 39.7593C60.2882 39.6178 59.9157 39.0221 60.0498 38.4189C60.4744 36.5647 60.7128 34.6584 60.7649 32.7372C60.7798 32.1192 61.2938 31.6277 61.9121 31.65C62.5304 31.6649 63.0146 32.1787 62.9997 32.7968C62.9475 34.8595 62.6868 36.9222 62.2324 38.9179C62.1132 39.4317 61.6514 39.7891 61.1448 39.7891ZM2.11771 32.283C2.11771 32.283 2.09536 32.283 2.08791 32.283C1.46963 32.2681 0.985436 31.7543 1.00033 31.1362C1.05993 29.0735 1.32065 27.0183 1.7825 25.0151C1.92403 24.412 2.51996 24.0396 3.12334 24.1811C3.72673 24.3226 4.09918 24.9183 3.95765 25.5215C3.5256 27.3757 3.28723 29.282 3.23508 31.1958C3.22018 31.7989 2.72109 32.283 2.11771 32.283ZM61.1597 26.5044C60.6457 26.5044 60.1913 26.1545 60.0721 25.6332C59.6475 23.7716 59.0367 21.9472 58.2546 20.2047C58.0013 19.6462 58.2546 18.9834 58.8132 18.7302C59.3794 18.4771 60.0349 18.7302 60.2882 19.2887C61.1374 21.1653 61.7929 23.1312 62.2547 25.1417C62.3888 25.7449 62.0164 26.3406 61.413 26.4747C61.3311 26.497 61.2491 26.5044 61.1672 26.5044H61.1597ZM5.44003 19.4153C5.2687 19.4153 5.08992 19.3781 4.92604 19.2887C4.3748 19.0058 4.16623 18.3281 4.44929 17.7845C5.39534 15.9601 6.52761 14.2251 7.81631 12.6166C8.20367 12.14 8.90389 12.0581 9.38808 12.4454C9.87228 12.8326 9.94677 13.5325 9.55942 14.0166C8.3601 15.5059 7.30977 17.1218 6.43077 18.8122C6.22964 19.1994 5.84229 19.4153 5.44003 19.4153ZM55.3941 14.5229C55.0663 14.5229 54.7386 14.3815 54.5225 14.0985C53.3307 12.6092 51.9898 11.2241 50.5298 9.99544C50.0605 9.60077 50.0009 8.89335 50.3957 8.42421C50.7905 7.95508 51.4982 7.89551 51.9675 8.29018C53.5392 9.61566 54.9844 11.105 56.2731 12.7134C56.6604 13.1975 56.5785 13.8974 56.0943 14.2847C55.8857 14.4485 55.6399 14.5304 55.4015 14.5304L55.3941 14.5229ZM14.014 9.25823C13.6788 9.25823 13.3436 9.10185 13.1201 8.81144C12.7477 8.31996 12.8445 7.61999 13.3361 7.24766C14.9824 6.00408 16.7553 4.92433 18.6027 4.03819C19.1614 3.77012 19.8244 4.00841 20.0925 4.55945C20.3607 5.11794 20.1223 5.78069 19.5711 6.04876C17.8503 6.87533 16.2041 7.88062 14.6844 9.02738C14.4833 9.17632 14.2449 9.25078 14.014 9.25078V9.25823ZM45.0099 6.21259C44.8461 6.21259 44.6822 6.17535 44.5258 6.10089C42.805 5.26688 40.9949 4.60413 39.1549 4.12755C38.559 3.97117 38.194 3.368 38.3504 2.76483C38.5068 2.16911 39.1102 1.81167 39.7136 1.96061C41.7025 2.47442 43.6542 3.18929 45.509 4.08287C46.0677 4.35095 46.2987 5.02114 46.023 5.57218C45.8294 5.96685 45.4346 6.20514 45.0174 6.20514L45.0099 6.21259ZM26.1338 3.80735C25.6123 3.80735 25.1431 3.44247 25.0388 2.90632C24.9196 2.30315 25.3144 1.71487 25.9178 1.59572C27.9067 1.20106 29.9478 1 31.9963 1C32.6146 1 33.1434 1.49892 33.1434 2.11698C33.1434 2.73505 32.6741 3.23397 32.0559 3.23397H31.9963C30.0967 3.23397 28.2047 3.42013 26.3573 3.78501C26.2828 3.7999 26.2083 3.80735 26.1412 3.80735H26.1338ZM31.9963 11.105C20.4724 11.105 11.0939 20.4727 11.0939 31.9926C11.0939 43.5124 20.4724 52.8801 31.9963 52.8801C43.5201 52.8801 52.8986 43.5124 52.8986 31.9926C52.8986 20.4727 43.5201 11.105 31.9963 11.105ZM20.3905 46.5878C20.9343 42.5592 23.534 39.0817 27.2512 37.4509C27.6087 37.2945 27.8545 36.9669 27.9067 36.5796C27.9588 36.1924 27.8024 35.8052 27.5044 35.5595C25.739 34.1297 24.7184 32 24.7184 29.7214C24.7184 25.5811 28.0855 22.2078 32.2272 22.2078C36.3689 22.2078 39.7359 25.5811 39.7359 29.7214C39.7359 32.0819 38.6633 34.2489 36.7935 35.6786C36.4807 35.9169 36.3168 36.2967 36.3615 36.6839C36.4062 37.0711 36.6445 37.4137 36.9947 37.5775C40.5554 39.2529 43.0583 42.6858 43.5872 46.5878C40.3989 49.1271 36.3689 50.6462 31.9814 50.6462C27.5938 50.6462 23.5638 49.1196 20.3756 46.5804L20.3905 46.5878ZM45.5314 44.8155C44.6598 41.3156 42.4474 38.2551 39.3933 36.3413C41.0544 34.5616 41.9856 32.2234 41.9856 29.7214C41.9856 24.3449 37.6129 19.9738 32.2421 19.9738C26.8713 19.9738 22.4986 24.3449 22.4986 29.7214C22.4986 32.1117 23.3627 34.3829 24.9121 36.1477C21.6866 38.0466 19.3625 41.1816 18.4612 44.8155C15.2878 41.472 13.3361 36.9594 13.3361 32C13.3361 21.7163 21.709 13.3464 32.0037 13.3464C42.2985 13.3464 50.6713 21.7163 50.6713 32C50.6713 36.9669 48.7196 41.4795 45.5463 44.823L45.5314 44.8155ZM12.8221 17.7324V10.3231C12.8221 9.70502 12.3231 9.2061 11.7048 9.2061H4.30031C3.68203 9.2061 3.18294 9.70502 3.18294 10.3231C3.18294 10.9411 3.68203 11.4401 4.30031 11.4401H10.5874V17.7324C10.5874 18.3505 11.0865 18.8494 11.7048 18.8494C12.3231 18.8494 12.8221 18.3505 12.8221 17.7324ZM61.0331 53.6844C61.0331 53.0663 60.534 52.5674 59.9157 52.5674H53.6286V46.275C53.6286 45.657 53.1295 45.1581 52.5112 45.1581C51.893 45.1581 51.3939 45.657 51.3939 46.275V53.6844C51.3939 54.3024 51.893 54.8013 52.5112 54.8013H59.9157C60.534 54.8013 61.0331 54.3024 61.0331 53.6844Z" stroke="#C4FE01" stroke-width="1.4" mask="url(#path-1-outside-1_128_251)"/>
</svg>
