<svg width="291" height="121" viewBox="0 0 291 121" fill="none" xmlns="http://www.w3.org/2000/svg">
<rect x="5" y="5" width="281" height="111" rx="55.5" stroke="#C4FE01" stroke-width="10"/>
<mask id="path-2-outside-1_0_1" maskUnits="userSpaceOnUse" x="113" y="29" width="64" height="64" fill="black">
<rect fill="white" x="113" y="29" width="64" height="64"/>
<path d="M144.885 92C144.266 92 143.767 91.5011 143.767 90.883C143.767 90.265 144.266 89.766 144.885 89.766H145.004C146.918 89.766 148.84 89.5724 150.702 89.2001C151.306 89.0735 151.894 89.4682 152.021 90.0713C152.14 90.6745 151.753 91.2628 151.149 91.3894C149.138 91.7915 147.075 92 145.011 92H144.885ZM137.517 91.0468C137.428 91.0468 137.331 91.032 137.234 91.0096C135.245 90.4958 133.294 89.7735 131.446 88.8725C130.895 88.6044 130.664 87.9342 130.932 87.3757C131.2 86.8172 131.878 86.5938 132.43 86.8619C134.15 87.7033 135.953 88.3661 137.8 88.8427C138.396 88.999 138.754 89.6097 138.605 90.2054C138.478 90.7118 138.024 91.0394 137.525 91.0394L137.517 91.0468ZM157.973 89.0363C157.556 89.0363 157.161 88.8054 156.967 88.4033C156.699 87.8448 156.93 87.1821 157.489 86.914C159.202 86.0874 160.848 85.0822 162.375 83.9205C162.867 83.5482 163.567 83.645 163.939 84.1364C164.312 84.6279 164.215 85.3279 163.723 85.7002C162.077 86.9438 160.312 88.031 158.464 88.9246C158.308 88.999 158.144 89.0363 157.98 89.0363H157.973ZM125.718 84.9258C125.465 84.9258 125.204 84.8364 124.995 84.6651C123.424 83.3322 121.978 81.8429 120.705 80.2345C120.317 79.7504 120.399 79.0504 120.883 78.6632C121.368 78.276 122.068 78.3579 122.455 78.8419C123.64 80.3387 124.98 81.7238 126.44 82.9524C126.91 83.3546 126.969 84.0545 126.575 84.5237C126.351 84.7843 126.038 84.9183 125.718 84.9183V84.9258ZM168.364 80.7483C168.118 80.7483 167.873 80.6664 167.664 80.5025C167.18 80.1153 167.105 79.4153 167.493 78.9313C168.685 77.4345 169.735 75.8186 170.606 74.1283C170.89 73.5847 171.56 73.3613 172.111 73.6443C172.662 73.9272 172.878 74.5974 172.595 75.1485C171.657 76.9729 170.525 78.7154 169.236 80.3238C169.012 80.5993 168.692 80.7408 168.364 80.7408V80.7483ZM117.71 74.3144C117.285 74.3144 116.876 74.0687 116.689 73.6517C115.848 71.7752 115.192 69.8018 114.738 67.7987C114.604 67.1955 114.984 66.5998 115.58 66.4658C116.183 66.3317 116.779 66.7115 116.913 67.3072C117.33 69.1689 117.941 70.9933 118.723 72.7358C118.976 73.3017 118.723 73.957 118.164 74.2102C118.015 74.2772 117.859 74.307 117.71 74.307V74.3144ZM174.145 68.7891C174.063 68.7891 173.981 68.7817 173.892 68.7593C173.288 68.6178 172.916 68.0221 173.05 67.4189C173.474 65.5647 173.713 63.6584 173.765 61.7372C173.78 61.1192 174.294 60.6277 174.912 60.65C175.53 60.6649 176.015 61.1787 176 61.7968C175.948 63.8595 175.687 65.9222 175.232 67.9179C175.113 68.4317 174.651 68.7891 174.145 68.7891ZM115.118 61.283C115.118 61.283 115.095 61.283 115.088 61.283C114.47 61.2681 113.985 60.7543 114 60.1362C114.06 58.0735 114.321 56.0183 114.782 54.0151C114.924 53.412 115.52 53.0396 116.123 53.1811C116.727 53.3226 117.099 53.9183 116.958 54.5215C116.526 56.3757 116.287 58.282 116.235 60.1958C116.22 60.7989 115.721 61.283 115.118 61.283ZM174.16 55.5044C173.646 55.5044 173.191 55.1545 173.072 54.6332C172.648 52.7716 172.037 50.9472 171.255 49.2047C171.001 48.6462 171.255 47.9834 171.813 47.7302C172.379 47.4771 173.035 47.7302 173.288 48.2887C174.137 50.1653 174.793 52.1312 175.255 54.1417C175.389 54.7449 175.016 55.3406 174.413 55.4747C174.331 55.497 174.249 55.5044 174.167 55.5044H174.16ZM118.44 48.4153C118.269 48.4153 118.09 48.3781 117.926 48.2887C117.375 48.0058 117.166 47.3281 117.449 46.7845C118.395 44.9601 119.528 43.2251 120.816 41.6166C121.204 41.14 121.904 41.0581 122.388 41.4454C122.872 41.8326 122.947 42.5325 122.559 43.0166C121.36 44.5059 120.31 46.1218 119.431 47.8122C119.23 48.1994 118.842 48.4153 118.44 48.4153ZM168.394 43.5229C168.066 43.5229 167.739 43.3815 167.523 43.0985C166.331 41.6092 164.99 40.2241 163.53 38.9954C163.06 38.6008 163.001 37.8933 163.396 37.4242C163.79 36.9551 164.498 36.8955 164.967 37.2902C166.539 38.6157 167.984 40.105 169.273 41.7134C169.66 42.1975 169.578 42.8974 169.094 43.2847C168.886 43.4485 168.64 43.5304 168.402 43.5304L168.394 43.5229ZM127.014 38.2582C126.679 38.2582 126.344 38.1019 126.12 37.8114C125.748 37.32 125.844 36.62 126.336 36.2477C127.982 35.0041 129.755 33.9243 131.603 33.0382C132.161 32.7701 132.824 33.0084 133.093 33.5595C133.361 34.1179 133.122 34.7807 132.571 35.0488C130.85 35.8753 129.204 36.8806 127.684 38.0274C127.483 38.1763 127.245 38.2508 127.014 38.2508V38.2582ZM158.01 35.2126C157.846 35.2126 157.682 35.1754 157.526 35.1009C155.805 34.2669 153.995 33.6041 152.155 33.1276C151.559 32.9712 151.194 32.368 151.35 31.7648C151.507 31.1691 152.11 30.8117 152.714 30.9606C154.703 31.4744 156.654 32.1893 158.509 33.0829C159.068 33.3509 159.299 34.0211 159.023 34.5722C158.829 34.9669 158.435 35.2051 158.017 35.2051L158.01 35.2126ZM139.134 32.8074C138.612 32.8074 138.143 32.4425 138.039 31.9063C137.92 31.3031 138.314 30.7149 138.918 30.5957C140.907 30.2011 142.948 30 144.996 30C145.615 30 146.143 30.4989 146.143 31.117C146.143 31.735 145.674 32.234 145.056 32.234H144.996C143.097 32.234 141.205 32.4201 139.357 32.785C139.283 32.7999 139.208 32.8074 139.141 32.8074H139.134ZM144.996 40.105C133.472 40.105 124.094 49.4727 124.094 60.9926C124.094 72.5124 133.472 81.8801 144.996 81.8801C156.52 81.8801 165.899 72.5124 165.899 60.9926C165.899 49.4727 156.52 40.105 144.996 40.105ZM133.39 75.5878C133.934 71.5592 136.534 68.0817 140.251 66.4509C140.609 66.2945 140.855 65.9669 140.907 65.5796C140.959 65.1924 140.802 64.8052 140.504 64.5595C138.739 63.1297 137.718 61 137.718 58.7214C137.718 54.5811 141.085 51.2078 145.227 51.2078C149.369 51.2078 152.736 54.5811 152.736 58.7214C152.736 61.0819 151.663 63.2489 149.794 64.6786C149.481 64.9169 149.317 65.2967 149.361 65.6839C149.406 66.0711 149.645 66.4137 149.995 66.5775C153.555 68.2529 156.058 71.6858 156.587 75.5878C153.399 78.1271 149.369 79.6462 144.981 79.6462C140.594 79.6462 136.564 78.1196 133.376 75.5804L133.39 75.5878ZM158.531 73.8155C157.66 70.3156 155.447 67.2551 152.393 65.3413C154.054 63.5616 154.986 61.2234 154.986 58.7214C154.986 53.3449 150.613 48.9738 145.242 48.9738C139.871 48.9738 135.499 53.3449 135.499 58.7214C135.499 61.1117 136.363 63.3829 137.912 65.1477C134.687 67.0466 132.363 70.1816 131.461 73.8155C128.288 70.472 126.336 65.9594 126.336 61C126.336 50.7163 134.709 42.3464 145.004 42.3464C155.298 42.3464 163.671 50.7163 163.671 61C163.671 65.9669 161.72 70.4795 158.546 73.823L158.531 73.8155ZM125.822 46.7324V39.3231C125.822 38.705 125.323 38.2061 124.705 38.2061H117.3C116.682 38.2061 116.183 38.705 116.183 39.3231C116.183 39.9411 116.682 40.4401 117.3 40.4401H123.587V46.7324C123.587 47.3505 124.086 47.8494 124.705 47.8494C125.323 47.8494 125.822 47.3505 125.822 46.7324ZM174.033 82.6844C174.033 82.0663 173.534 81.5674 172.916 81.5674H166.629V75.275C166.629 74.657 166.13 74.1581 165.511 74.1581C164.893 74.1581 164.394 74.657 164.394 75.275V82.6844C164.394 83.3024 164.893 83.8013 165.511 83.8013H172.916C173.534 83.8013 174.033 83.3024 174.033 82.6844Z"/>
</mask>
<path d="M144.885 92C144.266 92 143.767 91.5011 143.767 90.883C143.767 90.265 144.266 89.766 144.885 89.766H145.004C146.918 89.766 148.84 89.5724 150.702 89.2001C151.306 89.0735 151.894 89.4682 152.021 90.0713C152.14 90.6745 151.753 91.2628 151.149 91.3894C149.138 91.7915 147.075 92 145.011 92H144.885ZM137.517 91.0468C137.428 91.0468 137.331 91.032 137.234 91.0096C135.245 90.4958 133.294 89.7735 131.446 88.8725C130.895 88.6044 130.664 87.9342 130.932 87.3757C131.2 86.8172 131.878 86.5938 132.43 86.8619C134.15 87.7033 135.953 88.3661 137.8 88.8427C138.396 88.999 138.754 89.6097 138.605 90.2054C138.478 90.7118 138.024 91.0394 137.525 91.0394L137.517 91.0468ZM157.973 89.0363C157.556 89.0363 157.161 88.8054 156.967 88.4033C156.699 87.8448 156.93 87.1821 157.489 86.914C159.202 86.0874 160.848 85.0822 162.375 83.9205C162.867 83.5482 163.567 83.645 163.939 84.1364C164.312 84.6279 164.215 85.3279 163.723 85.7002C162.077 86.9438 160.312 88.031 158.464 88.9246C158.308 88.999 158.144 89.0363 157.98 89.0363H157.973ZM125.718 84.9258C125.465 84.9258 125.204 84.8364 124.995 84.6651C123.424 83.3322 121.978 81.8429 120.705 80.2345C120.317 79.7504 120.399 79.0504 120.883 78.6632C121.368 78.276 122.068 78.3579 122.455 78.8419C123.64 80.3387 124.98 81.7238 126.44 82.9524C126.91 83.3546 126.969 84.0545 126.575 84.5237C126.351 84.7843 126.038 84.9183 125.718 84.9183V84.9258ZM168.364 80.7483C168.118 80.7483 167.873 80.6664 167.664 80.5025C167.18 80.1153 167.105 79.4153 167.493 78.9313C168.685 77.4345 169.735 75.8186 170.606 74.1283C170.89 73.5847 171.56 73.3613 172.111 73.6443C172.662 73.9272 172.878 74.5974 172.595 75.1485C171.657 76.9729 170.525 78.7154 169.236 80.3238C169.012 80.5993 168.692 80.7408 168.364 80.7408V80.7483ZM117.71 74.3144C117.285 74.3144 116.876 74.0687 116.689 73.6517C115.848 71.7752 115.192 69.8018 114.738 67.7987C114.604 67.1955 114.984 66.5998 115.58 66.4658C116.183 66.3317 116.779 66.7115 116.913 67.3072C117.33 69.1689 117.941 70.9933 118.723 72.7358C118.976 73.3017 118.723 73.957 118.164 74.2102C118.015 74.2772 117.859 74.307 117.71 74.307V74.3144ZM174.145 68.7891C174.063 68.7891 173.981 68.7817 173.892 68.7593C173.288 68.6178 172.916 68.0221 173.05 67.4189C173.474 65.5647 173.713 63.6584 173.765 61.7372C173.78 61.1192 174.294 60.6277 174.912 60.65C175.53 60.6649 176.015 61.1787 176 61.7968C175.948 63.8595 175.687 65.9222 175.232 67.9179C175.113 68.4317 174.651 68.7891 174.145 68.7891ZM115.118 61.283C115.118 61.283 115.095 61.283 115.088 61.283C114.47 61.2681 113.985 60.7543 114 60.1362C114.06 58.0735 114.321 56.0183 114.782 54.0151C114.924 53.412 115.52 53.0396 116.123 53.1811C116.727 53.3226 117.099 53.9183 116.958 54.5215C116.526 56.3757 116.287 58.282 116.235 60.1958C116.22 60.7989 115.721 61.283 115.118 61.283ZM174.16 55.5044C173.646 55.5044 173.191 55.1545 173.072 54.6332C172.648 52.7716 172.037 50.9472 171.255 49.2047C171.001 48.6462 171.255 47.9834 171.813 47.7302C172.379 47.4771 173.035 47.7302 173.288 48.2887C174.137 50.1653 174.793 52.1312 175.255 54.1417C175.389 54.7449 175.016 55.3406 174.413 55.4747C174.331 55.497 174.249 55.5044 174.167 55.5044H174.16ZM118.44 48.4153C118.269 48.4153 118.09 48.3781 117.926 48.2887C117.375 48.0058 117.166 47.3281 117.449 46.7845C118.395 44.9601 119.528 43.2251 120.816 41.6166C121.204 41.14 121.904 41.0581 122.388 41.4454C122.872 41.8326 122.947 42.5325 122.559 43.0166C121.36 44.5059 120.31 46.1218 119.431 47.8122C119.23 48.1994 118.842 48.4153 118.44 48.4153ZM168.394 43.5229C168.066 43.5229 167.739 43.3815 167.523 43.0985C166.331 41.6092 164.99 40.2241 163.53 38.9954C163.06 38.6008 163.001 37.8933 163.396 37.4242C163.79 36.9551 164.498 36.8955 164.967 37.2902C166.539 38.6157 167.984 40.105 169.273 41.7134C169.66 42.1975 169.578 42.8974 169.094 43.2847C168.886 43.4485 168.64 43.5304 168.402 43.5304L168.394 43.5229ZM127.014 38.2582C126.679 38.2582 126.344 38.1019 126.12 37.8114C125.748 37.32 125.844 36.62 126.336 36.2477C127.982 35.0041 129.755 33.9243 131.603 33.0382C132.161 32.7701 132.824 33.0084 133.093 33.5595C133.361 34.1179 133.122 34.7807 132.571 35.0488C130.85 35.8753 129.204 36.8806 127.684 38.0274C127.483 38.1763 127.245 38.2508 127.014 38.2508V38.2582ZM158.01 35.2126C157.846 35.2126 157.682 35.1754 157.526 35.1009C155.805 34.2669 153.995 33.6041 152.155 33.1276C151.559 32.9712 151.194 32.368 151.35 31.7648C151.507 31.1691 152.11 30.8117 152.714 30.9606C154.703 31.4744 156.654 32.1893 158.509 33.0829C159.068 33.3509 159.299 34.0211 159.023 34.5722C158.829 34.9669 158.435 35.2051 158.017 35.2051L158.01 35.2126ZM139.134 32.8074C138.612 32.8074 138.143 32.4425 138.039 31.9063C137.92 31.3031 138.314 30.7149 138.918 30.5957C140.907 30.2011 142.948 30 144.996 30C145.615 30 146.143 30.4989 146.143 31.117C146.143 31.735 145.674 32.234 145.056 32.234H144.996C143.097 32.234 141.205 32.4201 139.357 32.785C139.283 32.7999 139.208 32.8074 139.141 32.8074H139.134ZM144.996 40.105C133.472 40.105 124.094 49.4727 124.094 60.9926C124.094 72.5124 133.472 81.8801 144.996 81.8801C156.52 81.8801 165.899 72.5124 165.899 60.9926C165.899 49.4727 156.52 40.105 144.996 40.105ZM133.39 75.5878C133.934 71.5592 136.534 68.0817 140.251 66.4509C140.609 66.2945 140.855 65.9669 140.907 65.5796C140.959 65.1924 140.802 64.8052 140.504 64.5595C138.739 63.1297 137.718 61 137.718 58.7214C137.718 54.5811 141.085 51.2078 145.227 51.2078C149.369 51.2078 152.736 54.5811 152.736 58.7214C152.736 61.0819 151.663 63.2489 149.794 64.6786C149.481 64.9169 149.317 65.2967 149.361 65.6839C149.406 66.0711 149.645 66.4137 149.995 66.5775C153.555 68.2529 156.058 71.6858 156.587 75.5878C153.399 78.1271 149.369 79.6462 144.981 79.6462C140.594 79.6462 136.564 78.1196 133.376 75.5804L133.39 75.5878ZM158.531 73.8155C157.66 70.3156 155.447 67.2551 152.393 65.3413C154.054 63.5616 154.986 61.2234 154.986 58.7214C154.986 53.3449 150.613 48.9738 145.242 48.9738C139.871 48.9738 135.499 53.3449 135.499 58.7214C135.499 61.1117 136.363 63.3829 137.912 65.1477C134.687 67.0466 132.363 70.1816 131.461 73.8155C128.288 70.472 126.336 65.9594 126.336 61C126.336 50.7163 134.709 42.3464 145.004 42.3464C155.298 42.3464 163.671 50.7163 163.671 61C163.671 65.9669 161.72 70.4795 158.546 73.823L158.531 73.8155ZM125.822 46.7324V39.3231C125.822 38.705 125.323 38.2061 124.705 38.2061H117.3C116.682 38.2061 116.183 38.705 116.183 39.3231C116.183 39.9411 116.682 40.4401 117.3 40.4401H123.587V46.7324C123.587 47.3505 124.086 47.8494 124.705 47.8494C125.323 47.8494 125.822 47.3505 125.822 46.7324ZM174.033 82.6844C174.033 82.0663 173.534 81.5674 172.916 81.5674H166.629V75.275C166.629 74.657 166.13 74.1581 165.511 74.1581C164.893 74.1581 164.394 74.657 164.394 75.275V82.6844C164.394 83.3024 164.893 83.8013 165.511 83.8013H172.916C173.534 83.8013 174.033 83.3024 174.033 82.6844Z" fill="#C4FE01"/>
<path d="M144.885 92C144.266 92 143.767 91.5011 143.767 90.883C143.767 90.265 144.266 89.766 144.885 89.766H145.004C146.918 89.766 148.84 89.5724 150.702 89.2001C151.306 89.0735 151.894 89.4682 152.021 90.0713C152.14 90.6745 151.753 91.2628 151.149 91.3894C149.138 91.7915 147.075 92 145.011 92H144.885ZM137.517 91.0468C137.428 91.0468 137.331 91.032 137.234 91.0096C135.245 90.4958 133.294 89.7735 131.446 88.8725C130.895 88.6044 130.664 87.9342 130.932 87.3757C131.2 86.8172 131.878 86.5938 132.43 86.8619C134.15 87.7033 135.953 88.3661 137.8 88.8427C138.396 88.999 138.754 89.6097 138.605 90.2054C138.478 90.7118 138.024 91.0394 137.525 91.0394L137.517 91.0468ZM157.973 89.0363C157.556 89.0363 157.161 88.8054 156.967 88.4033C156.699 87.8448 156.93 87.1821 157.489 86.914C159.202 86.0874 160.848 85.0822 162.375 83.9205C162.867 83.5482 163.567 83.645 163.939 84.1364C164.312 84.6279 164.215 85.3279 163.723 85.7002C162.077 86.9438 160.312 88.031 158.464 88.9246C158.308 88.999 158.144 89.0363 157.98 89.0363H157.973ZM125.718 84.9258C125.465 84.9258 125.204 84.8364 124.995 84.6651C123.424 83.3322 121.978 81.8429 120.705 80.2345C120.317 79.7504 120.399 79.0504 120.883 78.6632C121.368 78.276 122.068 78.3579 122.455 78.8419C123.64 80.3387 124.98 81.7238 126.44 82.9524C126.91 83.3546 126.969 84.0545 126.575 84.5237C126.351 84.7843 126.038 84.9183 125.718 84.9183V84.9258ZM168.364 80.7483C168.118 80.7483 167.873 80.6664 167.664 80.5025C167.18 80.1153 167.105 79.4153 167.493 78.9313C168.685 77.4345 169.735 75.8186 170.606 74.1283C170.89 73.5847 171.56 73.3613 172.111 73.6443C172.662 73.9272 172.878 74.5974 172.595 75.1485C171.657 76.9729 170.525 78.7154 169.236 80.3238C169.012 80.5993 168.692 80.7408 168.364 80.7408V80.7483ZM117.71 74.3144C117.285 74.3144 116.876 74.0687 116.689 73.6517C115.848 71.7752 115.192 69.8018 114.738 67.7987C114.604 67.1955 114.984 66.5998 115.58 66.4658C116.183 66.3317 116.779 66.7115 116.913 67.3072C117.33 69.1689 117.941 70.9933 118.723 72.7358C118.976 73.3017 118.723 73.957 118.164 74.2102C118.015 74.2772 117.859 74.307 117.71 74.307V74.3144ZM174.145 68.7891C174.063 68.7891 173.981 68.7817 173.892 68.7593C173.288 68.6178 172.916 68.0221 173.05 67.4189C173.474 65.5647 173.713 63.6584 173.765 61.7372C173.78 61.1192 174.294 60.6277 174.912 60.65C175.53 60.6649 176.015 61.1787 176 61.7968C175.948 63.8595 175.687 65.9222 175.232 67.9179C175.113 68.4317 174.651 68.7891 174.145 68.7891ZM115.118 61.283C115.118 61.283 115.095 61.283 115.088 61.283C114.47 61.2681 113.985 60.7543 114 60.1362C114.06 58.0735 114.321 56.0183 114.782 54.0151C114.924 53.412 115.52 53.0396 116.123 53.1811C116.727 53.3226 117.099 53.9183 116.958 54.5215C116.526 56.3757 116.287 58.282 116.235 60.1958C116.22 60.7989 115.721 61.283 115.118 61.283ZM174.16 55.5044C173.646 55.5044 173.191 55.1545 173.072 54.6332C172.648 52.7716 172.037 50.9472 171.255 49.2047C171.001 48.6462 171.255 47.9834 171.813 47.7302C172.379 47.4771 173.035 47.7302 173.288 48.2887C174.137 50.1653 174.793 52.1312 175.255 54.1417C175.389 54.7449 175.016 55.3406 174.413 55.4747C174.331 55.497 174.249 55.5044 174.167 55.5044H174.16ZM118.44 48.4153C118.269 48.4153 118.09 48.3781 117.926 48.2887C117.375 48.0058 117.166 47.3281 117.449 46.7845C118.395 44.9601 119.528 43.2251 120.816 41.6166C121.204 41.14 121.904 41.0581 122.388 41.4454C122.872 41.8326 122.947 42.5325 122.559 43.0166C121.36 44.5059 120.31 46.1218 119.431 47.8122C119.23 48.1994 118.842 48.4153 118.44 48.4153ZM168.394 43.5229C168.066 43.5229 167.739 43.3815 167.523 43.0985C166.331 41.6092 164.99 40.2241 163.53 38.9954C163.06 38.6008 163.001 37.8933 163.396 37.4242C163.79 36.9551 164.498 36.8955 164.967 37.2902C166.539 38.6157 167.984 40.105 169.273 41.7134C169.66 42.1975 169.578 42.8974 169.094 43.2847C168.886 43.4485 168.64 43.5304 168.402 43.5304L168.394 43.5229ZM127.014 38.2582C126.679 38.2582 126.344 38.1019 126.12 37.8114C125.748 37.32 125.844 36.62 126.336 36.2477C127.982 35.0041 129.755 33.9243 131.603 33.0382C132.161 32.7701 132.824 33.0084 133.093 33.5595C133.361 34.1179 133.122 34.7807 132.571 35.0488C130.85 35.8753 129.204 36.8806 127.684 38.0274C127.483 38.1763 127.245 38.2508 127.014 38.2508V38.2582ZM158.01 35.2126C157.846 35.2126 157.682 35.1754 157.526 35.1009C155.805 34.2669 153.995 33.6041 152.155 33.1276C151.559 32.9712 151.194 32.368 151.35 31.7648C151.507 31.1691 152.11 30.8117 152.714 30.9606C154.703 31.4744 156.654 32.1893 158.509 33.0829C159.068 33.3509 159.299 34.0211 159.023 34.5722C158.829 34.9669 158.435 35.2051 158.017 35.2051L158.01 35.2126ZM139.134 32.8074C138.612 32.8074 138.143 32.4425 138.039 31.9063C137.92 31.3031 138.314 30.7149 138.918 30.5957C140.907 30.2011 142.948 30 144.996 30C145.615 30 146.143 30.4989 146.143 31.117C146.143 31.735 145.674 32.234 145.056 32.234H144.996C143.097 32.234 141.205 32.4201 139.357 32.785C139.283 32.7999 139.208 32.8074 139.141 32.8074H139.134ZM144.996 40.105C133.472 40.105 124.094 49.4727 124.094 60.9926C124.094 72.5124 133.472 81.8801 144.996 81.8801C156.52 81.8801 165.899 72.5124 165.899 60.9926C165.899 49.4727 156.52 40.105 144.996 40.105ZM133.39 75.5878C133.934 71.5592 136.534 68.0817 140.251 66.4509C140.609 66.2945 140.855 65.9669 140.907 65.5796C140.959 65.1924 140.802 64.8052 140.504 64.5595C138.739 63.1297 137.718 61 137.718 58.7214C137.718 54.5811 141.085 51.2078 145.227 51.2078C149.369 51.2078 152.736 54.5811 152.736 58.7214C152.736 61.0819 151.663 63.2489 149.794 64.6786C149.481 64.9169 149.317 65.2967 149.361 65.6839C149.406 66.0711 149.645 66.4137 149.995 66.5775C153.555 68.2529 156.058 71.6858 156.587 75.5878C153.399 78.1271 149.369 79.6462 144.981 79.6462C140.594 79.6462 136.564 78.1196 133.376 75.5804L133.39 75.5878ZM158.531 73.8155C157.66 70.3156 155.447 67.2551 152.393 65.3413C154.054 63.5616 154.986 61.2234 154.986 58.7214C154.986 53.3449 150.613 48.9738 145.242 48.9738C139.871 48.9738 135.499 53.3449 135.499 58.7214C135.499 61.1117 136.363 63.3829 137.912 65.1477C134.687 67.0466 132.363 70.1816 131.461 73.8155C128.288 70.472 126.336 65.9594 126.336 61C126.336 50.7163 134.709 42.3464 145.004 42.3464C155.298 42.3464 163.671 50.7163 163.671 61C163.671 65.9669 161.72 70.4795 158.546 73.823L158.531 73.8155ZM125.822 46.7324V39.3231C125.822 38.705 125.323 38.2061 124.705 38.2061H117.3C116.682 38.2061 116.183 38.705 116.183 39.3231C116.183 39.9411 116.682 40.4401 117.3 40.4401H123.587V46.7324C123.587 47.3505 124.086 47.8494 124.705 47.8494C125.323 47.8494 125.822 47.3505 125.822 46.7324ZM174.033 82.6844C174.033 82.0663 173.534 81.5674 172.916 81.5674H166.629V75.275C166.629 74.657 166.13 74.1581 165.511 74.1581C164.893 74.1581 164.394 74.657 164.394 75.275V82.6844C164.394 83.3024 164.893 83.8013 165.511 83.8013H172.916C173.534 83.8013 174.033 83.3024 174.033 82.6844Z" stroke="#C4FE01" stroke-width="1.4" mask="url(#path-2-outside-1_0_1)"/>
</svg>
