<svg width="85" height="85" viewBox="0 0 85 85" fill="none" xmlns="http://www.w3.org/2000/svg">
<g clip-path="url(#clip0_604_16)">
<path d="M2.2 43.4001C3.4 43.4001 4.4 42.4001 4.4 41.3001C4.5 38.7001 4.8 36.2001 5.4 33.8001C5.7 32.6001 4.9 31.4001 3.8 31.2001C3.2 31.1001 2.6 31.2001 2.1 31.5001C1.6 31.8001 1.3 32.3001 1.1 32.9001C0.5 35.6001 0.1 38.4001 0 41.3001C0 41.9001 0.2 42.4001 0.6 42.9001C1 43.2001 1.6 43.4001 2.2 43.4001Z" fill="#C4FE01"/>
<path d="M79.3 33.9001C79.5 34.9001 80.4 35.6001 81.4 35.6001C81.6 35.6001 81.8 35.6001 81.9 35.5001C82.5 35.4001 83 35.0001 83.3 34.5001C83.6 34.0001 83.7 33.4001 83.6 32.8001C83 30.0001 82.1 27.3001 80.9 24.8001C80.4 23.7001 79.1 23.2001 78 23.7001C77.5 23.9001 77.1 24.4001 76.9 24.9001C76.7 25.5001 76.7 26.0001 76.9 26.6001C78 29.1001 78.8 31.5001 79.3 33.9001Z" fill="#C4FE01"/>
<path d="M34.4 5.2001C34.5 5.2001 34.7 5.2001 34.8 5.2001C37.2 4.7001 39.7 4.5001 42.3 4.5001C43.5 4.5001 44.5 3.5001 44.5 2.3001C44.5 1.1001 43.5 0.100098 42.3 0.100098C39.5 0.100098 36.7 0.400098 34 0.900098C32.8 1.1001 32 2.3001 32.3 3.5001C32.5 4.4001 33.4 5.2001 34.4 5.2001Z" fill="#C4FE01"/>
<path d="M51.7 5.6C54.1 6.2 56.5 7.1 58.8 8.2C59.1 8.3 59.4 8.4 59.8 8.4H60.1C60.8 8.3 61.5 7.8 61.8 7.2C62 6.6 62.1 6 61.9 5.5C61.7 4.9 61.3 4.5 60.8 4.2C58.2 3 55.6 2 52.8 1.3C51.6 1 50.4 1.7 50.1 2.9C49.9 4.1 50.6 5.3 51.7 5.6Z" fill="#C4FE01"/>
<path d="M5.29997 50.6001C4.99997 49.5001 3.79997 48.7001 2.69997 49.0001C1.49997 49.3001 0.799968 50.4001 0.999968 51.6001C1.59997 54.4001 2.49997 57.0001 3.69997 59.6001C4.09997 60.4001 4.79997 60.9001 5.69997 60.9001H6.39997V60.8001C6.49997 60.8001 6.49997 60.8001 6.59997 60.7001C7.69997 60.2001 8.19997 58.9001 7.69997 57.8001C6.59997 55.5001 5.79997 53.1001 5.29997 50.6001Z" fill="#C4FE01"/>
<path d="M72 18.7C72.3 19.2 72.9 19.4 73.4 19.5H73.7C74.2 19.5 74.7 19.3 75.1 19C76 18.2 76.2 16.9 75.4 15.9C73.6 13.7 71.7 11.7 69.5 9.90003C68.6 9.10003 67.2 9.20003 66.4 10.2C65.6 11.1 65.7 12.5 66.7 13.3C68.6 14.9 70.4 16.7 72 18.7Z" fill="#C4FE01"/>
<path d="M12.6 65.9C11.8 65 10.5 64.8 9.50001 65.6C8.60001 66.4 8.40001 67.7 9.10001 68.7C10.8 70.9 12.8 72.9 15 74.8C15.4 75.1 15.9 75.3 16.4 75.3H17.1V75C17.5 74.9 17.8 74.6 18.1 74.3C18.9 73.4001 18.8 72 17.8 71.2C15.9 69.7 14.2 67.8 12.6 65.9Z" fill="#C4FE01"/>
<path d="M12.9 18.4001V23.1001C12.9 24.3001 13.9 25.3001 15.1 25.3001C16.3 25.3001 17.3 24.3001 17.3 23.1001V13.1001C17.3 12.7001 17.2 12.3001 17 12.0001C17.4 12.2001 17.8 12.4001 18.2 12.4001H18.9V12.3001C19.1 12.2001 19.3 12.1001 19.5 12.0001C21.5 10.5001 23.7 9.20014 25.9 8.10014C27 7.60014 27.4 6.30014 26.9 5.20014C26.4 4.10014 25.1 3.70014 24 4.20014C21.5 5.40014 19.1 6.90014 16.8 8.60014C16.4 8.90014 16.1 9.40014 16 10.0001C15.9 10.5001 16 11.0001 16.3 11.4001C16 11.2001 15.6 11.1001 15.1 11.1001H5.10002C3.90002 11.1001 2.90002 12.1001 2.90002 13.3001C2.90002 14.5001 3.90002 15.5001 5.10002 15.5001H9.80002C9.60002 15.6001 9.50002 15.8001 9.30002 15.9001C7.50002 18.1001 6.00002 20.5001 4.70002 23.0001C4.40002 23.5001 4.40002 24.1001 4.60002 24.7001C4.80002 25.3001 5.20002 25.7001 5.70002 26.0001C6.00002 26.2001 6.40002 26.3001 6.70002 26.3001C7.50002 26.3001 8.30002 25.8001 8.70002 25.1001C9.90002 22.8001 11.3 20.7001 12.8 18.8001C12.8 18.6001 12.8 18.5001 12.9 18.4001Z" fill="#C4FE01"/>
<path d="M49.8 79.5002C47.3 80.0002 44.8 80.2002 42.3 80.2002H42.1C40.9 80.2002 39.9 81.2002 39.9 82.4002C39.9 83.6002 40.9 84.6002 42.1 84.6002H42.3C45.1 84.6002 47.9 84.3002 50.7 83.8002C51.9 83.6002 52.6 82.4002 52.4 81.2002C52.2 80.0002 51 79.3002 49.8 79.5002Z" fill="#C4FE01"/>
<path d="M84 41.8001C83.6 41.4001 83 41.1001 82.5 41.1001C81.9 41.1001 81.4 41.3001 80.9 41.7001C80.5 42.1001 80.2 42.7001 80.2 43.2001C80.1 45.7001 79.8 48.3001 79.3 50.7001C79 51.9001 79.8 53.1001 80.9 53.3001C81.1 53.3001 81.2 53.4001 81.4 53.4001C82.4 53.4001 83.3 52.7001 83.5 51.7001C84.1 49.0001 84.5 46.1001 84.5 43.3001C84.6 42.8001 84.4 42.3001 84 41.8001Z" fill="#C4FE01"/>
<path d="M79.8 69.3001H74.8C75 69.2001 75.2 69.0001 75.4 68.8001C77.2 66.6001 78.7 64.2001 80 61.7001C80.6 60.6001 80.1 59.3001 79 58.7001C77.9 58.2001 76.6 58.6001 76 59.7001C74.9 61.9001 73.5 64.0001 72 65.9001V61.5001C72 60.3001 71 59.3001 69.8 59.3001C68.6 59.3001 67.6 60.3001 67.6 61.5001V71.5001C67.6 72.0001 67.7 72.4001 68 72.7001C67.2 72.0001 66 71.9001 65.2 72.6001C63.2 74.1001 61 75.4001 58.8 76.5001C57.7 77.0001 57.2 78.3001 57.8 79.4001C58.2 80.2001 58.9 80.6001 59.8 80.6001C60.1 80.6001 60.4 80.5001 60.8 80.4001C63.3 79.2001 65.7 77.7001 68 76.0001C68.5 75.6001 68.8 75.1001 68.9 74.5001C69 74.0001 68.8 73.4001 68.5 73.0001C68.9 73.4001 69.4 73.6001 70 73.6001H79.9C81.1 73.6001 82.1 72.6001 82.1 71.4001C82.1 70.2001 81 69.3001 79.8 69.3001Z" fill="#C4FE01"/>
<path d="M32.8 79C30.4 78.4 28 77.5 25.7 76.4C25.2 76.1 24.6 76.1 24 76.3C23.4 76.5 23 76.9 22.7 77.4C22.2 78.5 22.6 79.8 23.7 80.3C26.2 81.5 28.9 82.5 31.6 83.2C31.8 83.2 32 83.3 32.1 83.3H32.4C33.3 83.2 34 82.5 34.2 81.7C34.7 80.5 34 79.3 32.8 79Z" fill="#C4FE01"/>
<path d="M71.1 42.3C71.1 26.4 58.2 13.5 42.3 13.5C26.4 13.5 13.6 26.5 13.6 42.3C13.6 58.2 26.5 71.1 42.4 71.1C58.3 71.1 71.1 58.2 71.1 42.3ZM56.4 39.3C56.4 31.7 50.2 25.5 42.6 25.5C35 25.5 28.8 31.7 28.8 39.3C28.8 42.4 29.8 45.4 31.7 47.8C28 50.2 25.1 53.9 23.8 58.2C20 53.7 18 48.2 18 42.3C18 28.9 28.9 18 42.3 18C55.7 18 66.7 28.9 66.7 42.3C66.7 48.1 64.6 53.7 60.8 58.1C59.5 54 56.8 50.4 53.3 48C55.3 45.6 56.4 42.5 56.4 39.3ZM36.2 50.3C36.9 50 37.4 49.3 37.5 48.6C37.6 47.8 37.3 47.1 36.7 46.6C34.5 44.8 33.2 42.1 33.2 39.3C33.2 34.1 37.4 29.9 42.6 29.9C47.8 29.9 52 34.1 52 39.3C52 42.2 50.7 45 48.3 46.7C47.7 47.2 47.4 47.9 47.4 48.7C47.5 49.5 48 50.1 48.6 50.5C53 52.6 56.2 56.8 57 61.7C52.7 65 47.6 66.7 42.2 66.7C36.8 66.7 31.7 65 27.4 61.7C28.3 56.6 31.6 52.3 36.2 50.3Z" fill="#C4FE01"/>
</g>
<defs>
<clipPath id="clip0_604_16">
<rect width="84.6" height="84.7" fill="white"/>
</clipPath>
</defs>
</svg>
